<svg xmlns="http://www.w3.org/2000/svg" width="63.19" height="50.484" viewBox="0 0 63.19 50.484"><defs><style>.a{fill:#f88c90;}</style></defs><g transform="translate(-326.422 -203.013)"><g transform="translate(326.422 231.474)"><path class="a" d="M388.418,218.834a2.761,2.761,0,0,0-2.663-.358,2.8,2.8,0,0,0-1.2-3.037c-1.292-.989-3.264-.144-6.533,1.259a60.94,60.94,0,0,1-7.656,2.834,4.011,4.011,0,0,0-.57-.735,4.625,4.625,0,0,0-3.247-1.24c-8.8.152-10.3-.727-12.023-1.738-2.181-1.279-4.652-2.727-19.1-2.727h-8.051a.957.957,0,0,0-.956.958v17.2a.955.955,0,0,0,.956.955h7.9a68.973,68.973,0,0,0,19.936,2.91c9.848,0,21.775-2.192,32.06-10.337.231-.158,2.245-1.6,2.336-3.493A2.951,2.951,0,0,0,388.418,218.834ZM334.47,230.295h-6.133V215.008h6.133Zm36.506-8.942a63.772,63.772,0,0,0,7.8-2.9c1.755-.749,4.15-1.789,4.612-1.5.482.369.539.662.536.851a3,3,0,0,1-1.052,1.721c-.217.093-.432.18-.663.282a71.858,71.858,0,0,1-11.349,3.919,3.581,3.581,0,0,0,.183-.913A7.024,7.024,0,0,0,370.976,221.352Zm15.157,1.89c-19.575,15.5-45.367,8.635-49.745,7.305V215.011c13.07.056,15.245,1.33,17.171,2.46,1.972,1.158,3.681,2.158,13.061,2a2.643,2.643,0,0,1,1.819.679,3.218,3.218,0,0,1,.694,2.55c-.017.285-.071,1.138-1.763,1.817l-.034.014-.022.006c-1.789.7-5.735,1.3-14.376.177a.956.956,0,1,0-.245,1.9,67.958,67.958,0,0,0,8.556.637,19.643,19.643,0,0,0,6.671-.9,71.327,71.327,0,0,0,15.041-4.781c1.958-.831,3.814-1.62,4.223-1.271.477.4.519.7.511.893C387.66,222,386.565,222.941,386.133,223.243Z" transform="translate(-326.422 -213.092)"/></g><g transform="translate(330.287 235.397)"><path class="a" d="M328.9,216.718a1.113,1.113,0,1,0-1.11-1.113A1.113,1.113,0,0,0,328.9,216.718Z" transform="translate(-327.794 -214.492)"/></g><g transform="translate(349.191 207.321)"><path class="a" d="M338.126,215.625a1.617,1.617,0,0,1-1.721-1.482.956.956,0,0,0-1.913,0,3.443,3.443,0,0,0,2.679,3.263v.513a.958.958,0,1,0,1.916,0v-.513a3.441,3.441,0,0,0,2.677-3.263,3.3,3.3,0,0,0-3.637-3.392c-1.175,0-1.721-.468-1.721-1.476a1.744,1.744,0,0,1,3.448,0,.955.955,0,1,0,1.91,0,3.435,3.435,0,0,0-2.677-3.26V205.5a.958.958,0,0,0-1.916,0v.516a3.438,3.438,0,0,0-2.679,3.26,3.3,3.3,0,0,0,3.634,3.392c1.161,0,1.727.482,1.727,1.476A1.621,1.621,0,0,1,338.126,215.625Z" transform="translate(-334.492 -204.542)"/></g><g transform="translate(341.402 203.013)"><path class="a" d="M343.182,225.963a11.389,11.389,0,0,0,5.319-1.324,11.483,11.483,0,1,0,5.606-13.608,11.467,11.467,0,1,0-10.926,14.932Zm16.259-14.346a9.563,9.563,0,1,1-9.562,9.565A9.575,9.575,0,0,1,359.441,211.617Zm-16.259-6.694a9.566,9.566,0,0,1,9.249,7.2,11.321,11.321,0,0,0-4.356,10.562,9.445,9.445,0,0,1-4.894,1.369,9.563,9.563,0,0,1,0-19.127Z" transform="translate(-331.71 -203.013)"/></g><g transform="translate(365.471 214.035)"><path class="a" d="M343.9,218a1.621,1.621,0,0,1-1.724-1.479.956.956,0,1,0-1.913,0,3.439,3.439,0,0,0,2.682,3.257v.518a.957.957,0,0,0,1.913,0v-.518a3.44,3.44,0,0,0,2.679-3.257,3.3,3.3,0,0,0-3.637-3.392c-1.158,0-1.724-.485-1.724-1.479a1.744,1.744,0,0,1,3.448,0,.956.956,0,0,0,1.913,0,3.438,3.438,0,0,0-2.679-3.26v-.518a.957.957,0,0,0-1.913,0v.518a3.437,3.437,0,0,0-2.682,3.26,3.3,3.3,0,0,0,3.637,3.392c1.161,0,1.724.482,1.724,1.479A1.621,1.621,0,0,1,343.9,218Z" transform="translate(-340.262 -206.918)"/></g></g></svg>