<svg xmlns="http://www.w3.org/2000/svg" width="79.232" height="63.3" viewBox="0 0 79.232 63.3"><defs><style>.a{fill:#f88c90;}</style></defs><g transform="translate(-326.422 -203.013)"><g transform="translate(326.422 238.664)"><path class="a" d="M404.157,220.3a3.458,3.458,0,0,0-3.339-.449,3.517,3.517,0,0,0-1.5-3.813c-1.62-1.241-4.093-.18-8.192,1.581a76.346,76.346,0,0,1-9.6,3.558,5.031,5.031,0,0,0-.715-.923,5.794,5.794,0,0,0-4.071-1.556c-11.039.191-12.91-.913-15.075-2.182-2.734-1.606-5.833-3.424-23.946-3.424h-10.1a1.2,1.2,0,0,0-1.2,1.2v21.594a1.2,1.2,0,0,0,1.2,1.2h9.9a86.38,86.38,0,0,0,25,3.654c12.348,0,27.3-2.752,40.2-12.978.29-.2,2.815-2.013,2.929-4.386A3.707,3.707,0,0,0,404.157,220.3ZM336.513,234.69h-7.69V215.5h7.69Zm45.774-11.227a79.9,79.9,0,0,0,9.784-3.64c2.2-.941,5.2-2.246,5.783-1.878.6.463.676.831.672,1.068a3.769,3.769,0,0,1-1.319,2.161c-.272.117-.541.226-.831.354a90.024,90.024,0,0,1-14.23,4.92,4.5,4.5,0,0,0,.23-1.146A8.828,8.828,0,0,0,382.287,223.463Zm19,2.373c-24.544,19.458-56.884,10.841-62.373,9.172V215.5c16.388.071,19.115,1.67,21.53,3.088,2.472,1.454,4.616,2.709,16.377,2.511a3.312,3.312,0,0,1,2.281.852,4.044,4.044,0,0,1,.87,3.2c-.021.357-.088,1.429-2.211,2.281l-.042.018-.028.007c-2.243.874-7.191,1.627-18.025.223a1.2,1.2,0,0,0-.308,2.38,85.1,85.1,0,0,0,10.728.8,24.6,24.6,0,0,0,8.365-1.125,89.354,89.354,0,0,0,18.86-6c2.455-1.043,4.782-2.034,5.3-1.6.6.5.651.877.64,1.121C403.206,224.276,401.833,225.458,401.292,225.836Z" transform="translate(-326.422 -213.092)"/></g><g transform="translate(331.275 243.615)"><path class="a" d="M329.188,217.286a1.4,1.4,0,1,0-1.394-1.4A1.4,1.4,0,0,0,329.188,217.286Z" transform="translate(-327.794 -214.492)"/></g><g transform="translate(354.966 208.421)"><path class="a" d="M339.055,218.457a2.03,2.03,0,0,1-2.161-1.861,1.2,1.2,0,0,0-2.4,0,4.323,4.323,0,0,0,3.364,4.1v.644a1.2,1.2,0,1,0,2.405,0v-.644a4.32,4.32,0,0,0,3.36-4.1c0-2.586-1.79-4.259-4.566-4.259-1.475,0-2.161-.587-2.161-1.853a2.19,2.19,0,0,1,4.329,0,1.2,1.2,0,1,0,2.4,0,4.313,4.313,0,0,0-3.36-4.092v-.647a1.2,1.2,0,0,0-2.405,0v.647a4.316,4.316,0,0,0-3.364,4.092c0,2.582,1.793,4.259,4.563,4.259,1.457,0,2.168.6,2.168,1.853A2.035,2.035,0,0,1,339.055,218.457Z" transform="translate(-334.492 -204.542)"/></g><g transform="translate(345.126 203.013)"><path class="a" d="M346.113,231.826a14.3,14.3,0,0,0,6.678-1.662,14.417,14.417,0,1,0,7.039-17.084,14.4,14.4,0,1,0-13.717,18.747Zm20.413-18.011a12.007,12.007,0,1,1-12.005,12.009A12.021,12.021,0,0,1,366.526,213.815Zm-20.413-8.4a12.01,12.01,0,0,1,11.612,9.034,14.213,14.213,0,0,0-5.468,13.261,11.859,11.859,0,0,1-6.144,1.719,12.007,12.007,0,0,1,0-24.013Z" transform="translate(-331.71 -203.013)"/></g><g transform="translate(375.376 216.825)"><path class="a" d="M344.828,220.833a2.036,2.036,0,0,1-2.165-1.857,1.2,1.2,0,1,0-2.4,0,4.318,4.318,0,0,0,3.367,4.089v.651a1.2,1.2,0,0,0,2.4,0v-.651a4.318,4.318,0,0,0,3.364-4.089c0-2.589-1.793-4.259-4.566-4.259-1.454,0-2.165-.608-2.165-1.857a2.19,2.19,0,0,1,4.329,0,1.2,1.2,0,0,0,2.4,0,4.316,4.316,0,0,0-3.364-4.092v-.651a1.2,1.2,0,0,0-2.4,0v.651a4.315,4.315,0,0,0-3.367,4.092c0,2.586,1.793,4.259,4.566,4.259,1.457,0,2.165.6,2.165,1.857A2.036,2.036,0,0,1,344.828,220.833Z" transform="translate(-340.262 -206.918)"/></g></g></svg>