<svg xmlns="http://www.w3.org/2000/svg" width="78.325" height="64.438" viewBox="0 0 78.325 64.438"><defs><style>.a{fill:#f88c90;}</style></defs><g transform="translate(-494.197 -105.375)"><g transform="translate(514.911 111.641)"><path class="a" d="M501.95,107.476a1.072,1.072,0,1,0,0,1.518A1.081,1.081,0,0,0,501.95,107.476Z" transform="translate(-500.121 -107.166)"/></g><g transform="translate(494.197 105.375)"><path class="a" d="M572.522,127.535a1.182,1.182,0,0,0-.35-.839L551.2,105.726a1.178,1.178,0,0,0-1.678,0l-5.137,5.13h0l-.014.014a5.763,5.763,0,0,1-4.088,1.692h-6.2a9.34,9.34,0,0,0-6.651,2.748l-.619.619-4.423-4.423,0,0-5.2-5.2a1.184,1.184,0,0,0-1.678,0l-20.973,20.969a1.191,1.191,0,0,0,0,1.678l5.2,5.2,10.675,10.675-.231.231a4.892,4.892,0,0,0,0,6.916,4.8,4.8,0,0,0,2.315,1.3,4.9,4.9,0,0,0,4.213,7.906c-.01.119-.014.241-.014.364a4.895,4.895,0,0,0,4.888,4.9h0a4.928,4.928,0,0,0,2.3-.573,4.9,4.9,0,0,0,8.269,2.521l.965-.969a4.891,4.891,0,0,0,7.525-2.881,4.892,4.892,0,0,0,7.9-4.217,4.893,4.893,0,0,0,4.682-7.182,4.821,4.821,0,0,0,2.528-1.339,4.9,4.9,0,0,0,0-6.92l-.042-.045,11.315-11.319.007-.007,5.13-5.133A1.186,1.186,0,0,0,572.522,127.535Zm-75.462.573,19.295-19.291,3.518,3.521-19.291,19.295Zm14.809,22.19a2.52,2.52,0,0,1,0-3.563l.227-.227,3.567,3.563-.262.259A2.526,2.526,0,0,1,511.869,150.3Zm2.706,7.784a2.505,2.505,0,0,1-.738-1.783,2.476,2.476,0,0,1,.738-1.783l2.49-2.493.045-.045.227-.227,3.567,3.56-2.762,2.773A2.53,2.53,0,0,1,514.575,158.081Zm8.808,5.238a2.5,2.5,0,0,1-1.787.738h0a2.517,2.517,0,0,1-1.773-4.3l2.762-2.766,3.563,3.563Zm3.535,3.385a2.522,2.522,0,0,1,0-3.563l.906-.906,3.567,3.563-.906.9A2.526,2.526,0,0,1,526.919,166.7Zm27.172-16.588a2.52,2.52,0,0,1-3.567,0l-.017-.01L538.58,138.175a1.188,1.188,0,0,0-1.682,1.678l11.941,11.941,1.86,1.86a2.52,2.52,0,1,1-3.56,3.567l-13.8-13.8a1.187,1.187,0,0,0-1.678,1.678l13.8,13.8a2.521,2.521,0,1,1-3.567,3.563l-2.444-2.444-.091-.091h0L528.1,148.661a1.184,1.184,0,0,0-1.678,0h0v0a1.182,1.182,0,0,0,0,1.671l11.266,11.27h0a2.521,2.521,0,0,1-3.567,3.563l-31.858-31.858,19.295-19.295,3.588,3.591-4.71,4.717a5.832,5.832,0,0,0,3.441,10.049c.189.017.374.028.559.028a5.815,5.815,0,0,0,4.119-1.713l2.9-2.9a9.3,9.3,0,0,1,2.241-1.643l20.4,20.4A2.529,2.529,0,0,1,554.091,150.116Zm-17.906-24.823a9.358,9.358,0,0,1,1.665-.154h0a1.187,1.187,0,0,0,0-2.374h0a11.358,11.358,0,0,0-8.084,3.35l-2.892,2.9a3.462,3.462,0,0,1-5.336-.535,3.6,3.6,0,0,1,.57-4.479l7.011-7.007a6.962,6.962,0,0,1,4.969-2.056h6.2a8.108,8.108,0,0,0,4.8-1.566l19.368,19.368-10.42,10.417Zm30.012,5.7L546.9,111.7l3.462-3.462,19.291,19.295Z" transform="translate(-494.197 -105.375)"/></g><g transform="translate(564.696 126.094)"><path class="a" d="M516.185,113.122a1.068,1.068,0,1,0-1.514,0A1.059,1.059,0,0,0,516.185,113.122Z" transform="translate(-514.359 -111.3)"/></g></g></svg>