<svg xmlns="http://www.w3.org/2000/svg" width="63.19" height="51.986" viewBox="0 0 63.19 51.986"><defs><style>.a{fill:#f88c90;}</style></defs><g transform="translate(-494.197 -105.375)"><g transform="translate(510.796 111.641)"><path class="a" d="M501.95,107.476a1.072,1.072,0,1,0,0,1.518A1.081,1.081,0,0,0,501.95,107.476Z" transform="translate(-500.121 -107.166)"/></g><g transform="translate(494.197 105.375)"><path class="a" d="M557.387,123.252a.953.953,0,0,0-.282-.677l-16.917-16.917a.95.95,0,0,0-1.354,0l-4.144,4.138h0l-.011.011a4.649,4.649,0,0,1-3.3,1.365h-5a7.536,7.536,0,0,0-5.366,2.217l-.5.5-3.569-3.569,0,0-4.192-4.195a.955.955,0,0,0-1.354,0l-16.92,16.917a.961.961,0,0,0,0,1.354l4.195,4.195,8.613,8.612-.186.186a3.947,3.947,0,0,0,0,5.58,3.876,3.876,0,0,0,1.868,1.047,3.949,3.949,0,0,0,3.4,6.378c-.008.1-.011.195-.011.293a3.949,3.949,0,0,0,3.944,3.949h0a3.976,3.976,0,0,0,1.856-.463,3.955,3.955,0,0,0,6.672,2.034l.779-.781a3.946,3.946,0,0,0,6.071-2.324,3.947,3.947,0,0,0,6.373-3.4,3.947,3.947,0,0,0,3.777-5.794,3.89,3.89,0,0,0,2.04-1.08,3.953,3.953,0,0,0,0-5.583l-.034-.037,9.129-9.132.006-.006,4.138-4.141A.957.957,0,0,0,557.387,123.252Zm-60.88.463,15.566-15.563,2.838,2.841-15.563,15.566Zm11.947,17.9a2.033,2.033,0,0,1,0-2.875l.183-.183,2.877,2.875-.212.209A2.038,2.038,0,0,1,508.454,141.617Zm2.183,6.279a2.021,2.021,0,0,1-.6-1.439,2,2,0,0,1,.6-1.439l2.009-2.011.037-.037.183-.183,2.877,2.872-2.229,2.237A2.041,2.041,0,0,1,510.638,147.9Zm7.106,4.226a2.02,2.02,0,0,1-1.442.6h0a2.031,2.031,0,0,1-1.43-3.47l2.229-2.231,2.875,2.875Zm2.852,2.731a2.035,2.035,0,0,1,0-2.875l.731-.731,2.877,2.875-.731.728A2.038,2.038,0,0,1,520.6,154.853Zm21.922-13.383a2.033,2.033,0,0,1-2.877,0l-.014-.008L530,131.837a.958.958,0,0,0-1.357,1.354l9.634,9.634,1.5,1.5a2.033,2.033,0,1,1-2.872,2.877l-11.137-11.137a.957.957,0,1,0-1.354,1.354l11.137,11.137a2.034,2.034,0,1,1-2.877,2.875l-1.972-1.972-.073-.073h0l-9.084-9.089a.955.955,0,0,0-1.354,0h0v0a.953.953,0,0,0,0,1.348l9.089,9.092h0a2.034,2.034,0,1,1-2.877,2.875l-25.7-25.7,15.566-15.566,2.894,2.9-3.8,3.806a4.7,4.7,0,0,0,2.776,8.107c.152.014.3.023.451.023a4.691,4.691,0,0,0,3.323-1.382l2.336-2.336a7.5,7.5,0,0,1,1.808-1.326l16.458,16.458A2.041,2.041,0,0,1,542.517,141.47Zm-14.446-20.026a7.548,7.548,0,0,1,1.343-.124h0a.958.958,0,0,0,0-1.915h0a9.164,9.164,0,0,0-6.522,2.7l-2.333,2.336a2.793,2.793,0,0,1-4.3-.432,2.908,2.908,0,0,1,.46-3.614l5.656-5.653a5.617,5.617,0,0,1,4.009-1.659h5a6.541,6.541,0,0,0,3.876-1.264l15.625,15.625-8.407,8.4Zm24.213,4.6-15.566-15.561,2.793-2.793,15.563,15.566Z" transform="translate(-494.197 -105.375)"/></g><g transform="translate(549.561 121.953)"><path class="a" d="M516.185,113.122a1.068,1.068,0,1,0-1.514,0A1.059,1.059,0,0,0,516.185,113.122Z" transform="translate(-514.359 -111.3)"/></g></g></svg>