<svg xmlns="http://www.w3.org/2000/svg" width="63.19" height="73.364" viewBox="0 0 63.19 73.364"><defs><style>.a{fill:#f88c90;}</style></defs><g transform="translate(-495.75 -54.004)"><path class="a" d="M552.616,101.359a47.964,47.964,0,0,0-7.274-2.977c-1.228-.4-2.266-.7-3.226-.943a37.288,37.288,0,0,0-3.983-.924A9.374,9.374,0,0,1,535.777,92a20.212,20.212,0,0,0,6.691-10.252,2.905,2.905,0,0,0,1.648-.7,6.577,6.577,0,0,0,2-4.448c.259-2.9-.865-5.273-2.66-5.758-.007-.563-.016-1.166-.029-1.536.308-1.094,1.667-6.685-1.32-10.2-1.9-2.24-5.07-3.092-9.416-2.571-11.133-7.327-23.14,3.56-23.258,3.678-.02.013-.026.039-.046.059s-.043.029-.059.049a.892.892,0,0,0-.072.134,1.3,1.3,0,0,0-.1.187,1.028,1.028,0,0,0-.046.213.858.858,0,0,0-.023.206,1.189,1.189,0,0,0,.033.213.851.851,0,0,0,.062.2.748.748,0,0,0,.118.193,1.243,1.243,0,0,0,.072.124c.016.016.039.023.059.043s.029.043.049.059c3.292,2.709,1.857,7.4,1.795,7.6-.01.023,0,.046-.01.069a.977.977,0,0,0-.023.164c0,.029-.02.049-.02.079-.007.167-.01.6-.013,1.048-1.791.485-2.915,2.859-2.656,5.758a6.591,6.591,0,0,0,2,4.448,2.905,2.905,0,0,0,1.647.7,20.234,20.234,0,0,0,6.7,10.261,9.389,9.389,0,0,1-2.5,4.651c-2.329.4-3.767.753-3.806.766-1.006.259-2.04.563-3.269.956a49.055,49.055,0,0,0-7.258,2.974,11.52,11.52,0,0,0-6.315,10.261v3.131a7.73,7.73,0,0,0,4.107,6.875c4.965,2.62,13.763,5.738,27.483,5.738h0c13.727,0,22.524-3.118,27.49-5.738a7.73,7.73,0,0,0,4.107-6.875V111.63A11.525,11.525,0,0,0,552.616,101.359Zm-25.275,23.51a28.123,28.123,0,0,1-3.5-3.026l2.2-10.858a1.109,1.109,0,0,0-.226-.92l-1.389-1.706,2.909-2.813,2.908,2.82-1.385,1.7a1.1,1.1,0,0,0-.226.92l2.2,10.851A27.373,27.373,0,0,1,527.34,124.869Zm9.8-24.342c.115.655.213,1.418.285,2.267l-4.408,5.139-3.55-3.432C531.7,103.75,535.142,102.377,537.14,100.527Zm-15.482,7.405-4.435-5.175c.078-.842.183-1.6.3-2.253,1.991,1.86,5.45,3.243,7.694,3.993Zm-.92,2.355a1.13,1.13,0,0,0,.793.386h.052a1.143,1.143,0,0,0,.779-.314l.459-.445.933,1.146-1.759,8.666a23.267,23.267,0,0,1-4.867-13.651Zm11.942,9.416-1.752-8.643.933-1.143.455.442a1.126,1.126,0,0,0,.776.314h.052a1.138,1.138,0,0,0,.8-.386l3.55-4.147A23.574,23.574,0,0,1,532.679,119.7Zm-.9-61.1a.791.791,0,0,0,.17.075,1,1,0,0,0,.2.088,1.073,1.073,0,0,0,.249.016,1.489,1.489,0,0,0,.17.013c3.757-.524,6.393.062,7.828,1.749,1.916,2.25,1.372,5.971,1.029,7.55a8.7,8.7,0,0,1-8.015-4.212,1.116,1.116,0,0,0-.947-.616c-8.978-.426-13.235.743-18.623,4.2a8.838,8.838,0,0,0-2-6.364C514.648,58.862,523.534,52.862,531.778,58.6Zm-17.69,21.62a1.114,1.114,0,0,0-.606-.737,1.14,1.14,0,0,0-.953,0,.4.4,0,0,1-.121.039.628.628,0,0,1-.439-.193,4.395,4.395,0,0,1-1.2-2.925c-.184-2.031.593-3.367,1.071-3.419a.541.541,0,0,1,.141.029,1.113,1.113,0,0,0,1.448-1.068c0-.233,0-.979.007-1.533,5.755-3.983,9.456-5.3,18.325-4.952a10.874,10.874,0,0,0,9.449,4.874c.01.619.016,1.29.016,1.615a1.115,1.115,0,0,0,1.451,1.064.969.969,0,0,1,.134-.029c.485.052,1.258,1.389,1.074,3.419a4.379,4.379,0,0,1-1.2,2.925.745.745,0,0,1-.435.193.373.373,0,0,1-.121-.039,1.147,1.147,0,0,0-.956,0,1.114,1.114,0,0,0-.606.737,18.11,18.11,0,0,1-6.544,10.327,11.206,11.206,0,0,1-13.409-.007A18.1,18.1,0,0,1,514.088,80.22Zm6.773,13.1a13.03,13.03,0,0,0,12.951-.007,11.441,11.441,0,0,0,2.6,4.634c-.668,1.674-5.421,3.809-9.073,4.877-3.652-1.068-8.417-3.213-9.066-4.89A11.453,11.453,0,0,0,520.862,93.325Zm-22.878,21.43v-3.131a9.3,9.3,0,0,1,5.1-8.277,46.2,46.2,0,0,1,6.93-2.833c1.179-.383,2.175-.675,3.138-.924.036-.01.92-.226,2.4-.5a28.976,28.976,0,0,0-.521,3.816,1.219,1.219,0,0,0-.023.393,26.033,26.033,0,0,0,8.994,21.771c-12-.491-19.547-3.531-23.107-5.407A5.514,5.514,0,0,1,497.984,114.755Zm58.723,0a5.511,5.511,0,0,1-2.919,4.9c-3.56,1.877-11.1,4.916-23.107,5.407a26.047,26.047,0,0,0,8.991-21.853,1.093,1.093,0,0,0-.016-.252,29.079,29.079,0,0,0-.544-3.986c.809.177,1.611.373,2.407.612.956.242,1.952.537,3.134.917a45.719,45.719,0,0,1,6.94,2.836,9.312,9.312,0,0,1,5.113,8.29Z" transform="translate(0 0)"/></g></svg>