<svg xmlns="http://www.w3.org/2000/svg" width="55.986" height="65" viewBox="0 0 55.986 65"><defs><style>.a{fill:#f88c90;}</style></defs><g transform="translate(-495.75 -54.004)"><path class="a" d="M546.132,95.96a42.494,42.494,0,0,0-6.445-2.638c-1.088-.351-2.008-.621-2.858-.836a33.036,33.036,0,0,0-3.529-.818,8.305,8.305,0,0,1-2.086-4,17.908,17.908,0,0,0,5.929-9.083,2.574,2.574,0,0,0,1.46-.621,5.827,5.827,0,0,0,1.77-3.941c.229-2.568-.766-4.672-2.356-5.1-.006-.5-.015-1.033-.026-1.361.273-.969,1.477-5.923-1.17-9.039-1.683-1.985-4.492-2.739-8.343-2.278-9.864-6.491-20.5,3.154-20.606,3.259-.017.012-.023.035-.041.052s-.038.026-.052.044a.791.791,0,0,0-.064.119,1.155,1.155,0,0,0-.09.165.912.912,0,0,0-.041.189.764.764,0,0,0-.02.183,1.055,1.055,0,0,0,.029.189.755.755,0,0,0,.055.174.662.662,0,0,0,.1.171,1.1,1.1,0,0,0,.064.11c.015.015.035.02.052.038s.026.038.044.052c2.916,2.4,1.645,6.552,1.59,6.729-.009.02,0,.041-.009.061a.863.863,0,0,0-.02.145c0,.026-.017.044-.017.07-.006.148-.009.534-.012.929-1.587.429-2.583,2.533-2.353,5.1a5.839,5.839,0,0,0,1.77,3.941,2.574,2.574,0,0,0,1.46.621,17.928,17.928,0,0,0,5.937,9.092,8.319,8.319,0,0,1-2.214,4.121c-2.063.351-3.337.667-3.372.679-.891.229-1.808.5-2.9.847a43.462,43.462,0,0,0-6.431,2.635,10.207,10.207,0,0,0-5.595,9.092v2.774a6.849,6.849,0,0,0,3.639,6.091c4.4,2.321,12.194,5.084,24.35,5.084h0c12.162,0,19.956-2.763,24.355-5.084a6.849,6.849,0,0,0,3.639-6.091V105.06A10.211,10.211,0,0,0,546.132,95.96Zm-22.394,20.83a24.913,24.913,0,0,1-3.1-2.681l1.953-9.62a.983.983,0,0,0-.2-.815l-1.23-1.512,2.577-2.493,2.577,2.5-1.227,1.506a.973.973,0,0,0-.2.815l1.947,9.614A24.255,24.255,0,0,1,523.739,116.79Zm8.682-21.567c.1.58.189,1.257.252,2.008l-3.906,4.553-3.146-3.041A20.452,20.452,0,0,0,532.421,95.223ZM518.7,101.784,514.775,97.2c.07-.746.162-1.419.264-2,1.764,1.648,4.829,2.873,6.817,3.537Zm-.815,2.086a1,1,0,0,0,.7.342h.046a1.013,1.013,0,0,0,.691-.279l.406-.395.827,1.016L519,112.234a20.615,20.615,0,0,1-4.312-12.095Zm10.58,8.343-1.552-7.658.827-1.013.4.392a1,1,0,0,0,.688.279h.046a1.008,1.008,0,0,0,.705-.342l3.146-3.674A20.887,20.887,0,0,1,528.469,112.213Zm-.8-54.137a.7.7,0,0,0,.151.067.891.891,0,0,0,.18.078.95.95,0,0,0,.221.015,1.319,1.319,0,0,0,.151.012c3.328-.464,5.664.055,6.935,1.55,1.7,1.994,1.216,5.29.911,6.689a7.706,7.706,0,0,1-7.1-3.732.989.989,0,0,0-.839-.546c-7.954-.377-11.726.659-16.5,3.72A7.831,7.831,0,0,0,510,60.29C512.494,58.308,520.367,52.992,527.671,58.076ZM512,77.231a.987.987,0,0,0-.537-.653,1.01,1.01,0,0,0-.845,0,.354.354,0,0,1-.107.035.556.556,0,0,1-.389-.171,3.894,3.894,0,0,1-1.059-2.591c-.163-1.8.525-2.983.949-3.03a.48.48,0,0,1,.125.026.986.986,0,0,0,1.283-.946c0-.206,0-.868.006-1.358,5.1-3.529,8.378-4.7,16.236-4.388a9.634,9.634,0,0,0,8.372,4.318c.009.548.014,1.143.014,1.431a.987.987,0,0,0,1.286.943.86.86,0,0,1,.119-.026c.429.046,1.114,1.23.952,3.03a3.88,3.88,0,0,1-1.059,2.591.66.66,0,0,1-.386.171.33.33,0,0,1-.107-.035,1.016,1.016,0,0,0-.847,0,.987.987,0,0,0-.537.653,16.046,16.046,0,0,1-5.8,9.15,9.929,9.929,0,0,1-11.88-.006A16.039,16.039,0,0,1,512,77.231Zm6,11.61a11.545,11.545,0,0,0,11.474-.006,10.136,10.136,0,0,0,2.3,4.106c-.592,1.483-4.8,3.375-8.038,4.321-3.236-.946-7.458-2.847-8.032-4.332A10.147,10.147,0,0,0,518,88.842Zm-20.27,18.987v-2.774a8.236,8.236,0,0,1,4.518-7.333,40.931,40.931,0,0,1,6.14-2.51c1.045-.34,1.927-.6,2.78-.818.032-.009.815-.2,2.13-.447a25.671,25.671,0,0,0-.461,3.381,1.079,1.079,0,0,0-.02.348,23.065,23.065,0,0,0,7.969,19.289c-10.635-.435-17.318-3.128-20.473-4.791A4.886,4.886,0,0,1,497.729,107.829Zm52.028,0a4.882,4.882,0,0,1-2.586,4.344c-3.154,1.663-9.837,4.356-20.473,4.791A23.078,23.078,0,0,0,534.664,97.6a.966.966,0,0,0-.015-.223,25.767,25.767,0,0,0-.482-3.532c.717.157,1.428.331,2.133.543.847.215,1.73.476,2.777.813a40.5,40.5,0,0,1,6.149,2.513,8.25,8.25,0,0,1,4.53,7.345Z" transform="translate(0 0)"/></g></svg>