<svg xmlns="http://www.w3.org/2000/svg" width="63.19" height="63.19" viewBox="0 0 63.19 63.19"><defs><style>.a{fill:#f88c90;}</style></defs><g transform="translate(-848.518 -200.866)"><g transform="translate(848.518 200.866)"><path class="a" d="M880.116,200.866a31.595,31.595,0,1,0,31.592,31.595A31.634,31.634,0,0,0,880.116,200.866Zm0,61.277a29.681,29.681,0,1,1,29.68-29.682A29.711,29.711,0,0,1,880.116,262.143Z" transform="translate(-848.518 -200.866)"/></g><g transform="translate(877.08 216.137)"><path class="a" d="M872.855,221.277h-8a3.238,3.238,0,0,0-2.163-2.163V207.123a.926.926,0,0,0-1.852,0v11.992a3.23,3.23,0,1,0,4.014,4.012h8a.925.925,0,1,0,0-1.849Zm-11.086,2.313a1.387,1.387,0,1,1,1.388-1.388A1.389,1.389,0,0,1,861.769,223.589Z" transform="translate(-858.532 -206.198)"/></g><g transform="translate(854.073 206.421)"><path class="a" d="M899.173,241.9a25.976,25.976,0,0,0,0-25.92c-.011-.02-.011-.043-.023-.065s-.034-.026-.043-.043a26.211,26.211,0,0,0-9.441-9.441c-.02-.014-.031-.034-.048-.043s-.043-.014-.063-.026a25.97,25.97,0,0,0-25.917,0,.409.409,0,0,0-.062.026c-.02.009-.031.028-.048.043a26.217,26.217,0,0,0-9.443,9.441c-.011.017-.029.028-.04.043s-.011.045-.02.065a25.938,25.938,0,0,0,0,25.92.5.5,0,0,0,.02.06.664.664,0,0,0,.057.074,26.234,26.234,0,0,0,9.426,9.415.331.331,0,0,0,.048.043c.028.017.062.023.088.04a25.956,25.956,0,0,0,25.86,0c.034-.017.065-.023.094-.04s.028-.028.048-.043a26.279,26.279,0,0,0,9.426-9.415c.017-.026.04-.048.057-.074S899.161,241.921,899.173,241.9Zm-9.7,7.409L888,246.761a.964.964,0,1,0-1.671.963l1.481,2.558a23.909,23.909,0,0,1-10.245,2.748v-2.958a.965.965,0,1,0-1.929,0v2.958a23.9,23.9,0,0,1-10.242-2.748l1.478-2.558a.963.963,0,1,0-1.668-.963l-1.478,2.552a24.289,24.289,0,0,1-7.5-7.494l2.56-1.478a.965.965,0,0,0-.966-1.671l-2.56,1.481a23.9,23.9,0,0,1-2.745-10.245h2.958a.963.963,0,1,0,0-1.927H852.51a23.874,23.874,0,0,1,2.745-10.242l2.56,1.478a.984.984,0,0,0,.483.128.964.964,0,0,0,.483-1.8l-2.56-1.475a24.268,24.268,0,0,1,7.5-7.5l1.478,2.555a.969.969,0,0,0,1.313.355.964.964,0,0,0,.355-1.319l-1.478-2.558a23.9,23.9,0,0,1,10.242-2.751v2.958a.965.965,0,1,0,1.929,0v-2.958a23.911,23.911,0,0,1,10.245,2.751l-1.481,2.558a.966.966,0,0,0,.352,1.319.976.976,0,0,0,1.319-.355l1.475-2.555a24.293,24.293,0,0,1,7.5,7.5l-2.555,1.475a.964.964,0,0,0,.486,1.8,1,1,0,0,0,.48-.128l2.558-1.478a24,24,0,0,1,2.751,10.242h-2.964a.963.963,0,0,0,0,1.927h2.964a24.019,24.019,0,0,1-2.751,10.245l-2.558-1.481a.969.969,0,0,0-1.319.355.96.96,0,0,0,.352,1.316l2.555,1.478A24.314,24.314,0,0,1,889.471,249.313Z" transform="translate(-850.555 -202.903)"/></g></g></svg>