<svg xmlns="http://www.w3.org/2000/svg" width="63.547" height="63.546" viewBox="0 0 63.547 63.546"><defs><style>.a{fill:#f88c90;}</style></defs><g transform="translate(-736.648 -56.761)"><g transform="translate(736.648 56.761)"><path class="a" d="M800.2,84.06a.9.9,0,0,0-.079-.36l-.034-.077a.936.936,0,0,0-.221-.292v0L789.6,74.562v-7.4a.963.963,0,0,0-.962-.962h-8.817l-10.778-9.211a.963.963,0,0,0-1.254,0L757.02,66.2H748.2a.965.965,0,0,0-.965.962v7.4l-10.252,8.766,0,0a.9.9,0,0,0-.218.289l-.037.079a.962.962,0,0,0-.079.36v35.286l.006.02a.971.971,0,0,0,.054.318l.014.017a.424.424,0,0,0,.043.079,1.11,1.11,0,0,0,.139.207.649.649,0,0,0,.08.074.937.937,0,0,0,.2.131.581.581,0,0,0,.093.048.983.983,0,0,0,.34.068h61.621a.818.818,0,0,0,.434-.116.872.872,0,0,0,.2-.131.645.645,0,0,0,.077-.074,1.047,1.047,0,0,0,.142-.21.67.67,0,0,0,.043-.077l.011-.017a.987.987,0,0,0,.057-.321l0-.017Zm-1.923,33.195-18.2-15.552,18.2-15.555Zm-.519-33.195L789.6,91.019V77.1ZM768.422,58.99l8.443,7.214H759.982Zm19.257,9.143V92.668l-9.087,7.768-9.544-8.156a.97.97,0,0,0-1.254,0l-9.541,8.156-9.086-7.768V68.134ZM756.773,101.7l-18.2,15.552V86.148Zm-9.535-10.684-8.145-6.959,8.145-6.965Zm-7.018,27.365,28.2-24.108,28.2,24.108Z" transform="translate(-736.648 -56.761)"/></g><g transform="translate(753.982 80.029)"><path class="a" d="M743.72,66.889h26.959a.963.963,0,0,0,0-1.926H743.72a.963.963,0,0,0,0,1.926Z" transform="translate(-742.758 -64.963)"/></g><g transform="translate(758.796 73.771)"><path class="a" d="M745.417,64.686h17.331a.965.965,0,0,0,0-1.929H745.417a.965.965,0,0,0,0,1.929Z" transform="translate(-744.455 -62.757)"/></g><g transform="translate(753.982 86.287)"><path class="a" d="M743.72,69.1h26.959a.963.963,0,0,0,0-1.926H743.72a.963.963,0,0,0,0,1.926Z" transform="translate(-742.758 -67.169)"/></g></g></svg>