<svg xmlns="http://www.w3.org/2000/svg" width="63.19" height="63.19" viewBox="0 0 63.19 63.19"><defs><style>.a{fill:#f88c90;}</style></defs><g transform="translate(-736.648 -56.761)"><g transform="translate(736.648 56.761)"><path class="a" d="M799.838,83.907a.9.9,0,0,0-.079-.358l-.034-.076a.931.931,0,0,0-.22-.291v0l-10.2-8.717V67.108a.957.957,0,0,0-.956-.956h-8.768l-10.717-9.16a.958.958,0,0,0-1.247,0l-10.714,9.16h-8.767a.96.96,0,0,0-.959.956v7.354l-10.195,8.717,0,0a.9.9,0,0,0-.217.288l-.037.079a.957.957,0,0,0-.079.358v35.087l.006.02a.965.965,0,0,0,.053.316l.014.017a.424.424,0,0,0,.042.079,1.1,1.1,0,0,0,.138.206.644.644,0,0,0,.079.073.934.934,0,0,0,.195.13.58.58,0,0,0,.093.048.977.977,0,0,0,.338.068h61.275a.814.814,0,0,0,.432-.116.869.869,0,0,0,.195-.13.645.645,0,0,0,.076-.073,1.045,1.045,0,0,0,.141-.209.673.673,0,0,0,.042-.076l.011-.017a.98.98,0,0,0,.056-.319l0-.017Zm-1.912,33.008-18.1-15.465,18.1-15.467Zm-.516-33.008-8.1,6.92V76.981ZM768.243,58.978l8.4,7.174H759.851Zm19.149,9.092v24.4l-9.036,7.724-9.49-8.11a.964.964,0,0,0-1.247,0l-9.487,8.11L749.1,92.466V68.07ZM756.66,101.451l-18.1,15.465V85.983Zm-9.481-10.624-8.1-6.92,8.1-6.926ZM740.2,118.038l28.044-23.973,28.046,23.973Z" transform="translate(-736.648 -56.761)"/></g><g transform="translate(753.803 79.894)"><path class="a" d="M743.72,66.889h26.959a.963.963,0,0,0,0-1.926H743.72a.963.963,0,0,0,0,1.926Z" transform="translate(-742.758 -64.963)"/></g><g transform="translate(758.617 73.672)"><path class="a" d="M745.417,64.686h17.331a.965.965,0,0,0,0-1.929H745.417a.965.965,0,0,0,0,1.929Z" transform="translate(-744.455 -62.757)"/></g><g transform="translate(753.803 86.116)"><path class="a" d="M743.72,69.1h26.959a.963.963,0,0,0,0-1.926H743.72a.963.963,0,0,0,0,1.926Z" transform="translate(-742.758 -67.169)"/></g></g></svg>