<svg xmlns="http://www.w3.org/2000/svg" width="63.193" height="64.744" viewBox="0 0 63.193 64.744"><defs><style>.a{fill:#f88c90;}</style></defs><g transform="translate(-792.865 -103.825)"><g transform="translate(805.328 103.825)"><path class="a" d="M846.925,139.655H832.017a5.119,5.119,0,0,0,.182-1.332,5.19,5.19,0,0,0-.812-2.789A5.247,5.247,0,0,0,832.765,132a4.529,4.529,0,0,0-1.558-3.558,5.457,5.457,0,0,0,1.237-3.659,4.682,4.682,0,0,0-4.385-4.824H816.239a24,24,0,0,0,.451-7.073c-.474-5.281-3.02-8.919-6.338-9.05-2.85-.11-4.02.5-4.223.627a.985.985,0,0,0-.451,1.032c.477,2.353,1.069,6.6.622,7.986-.957,2.96-3.286,5.827-5.344,8.359-2.113,2.6-3.778,4.65-3.778,6.477v18.564a2.893,2.893,0,0,0,2.891,2.89H807.9v10.593a.98.98,0,0,0,.98.98h4.957v6.24a.988.988,0,0,0,.529.873,1.016,1.016,0,0,0,.451.11.988.988,0,0,0,.569-.182l9.917-7.041h21.622a.981.981,0,0,0,.983-.98V140.638A.982.982,0,0,0,846.925,139.655Zm-46.857,8.154a.927.927,0,0,1-.931-.925V128.319c0-1.133,1.7-3.217,3.341-5.24,2.165-2.662,4.622-5.682,5.688-8.992.616-1.9-.061-6.234-.4-8.127a10.09,10.09,0,0,1,2.512-.162c2.217.087,4.093,3.145,4.463,7.269a21.846,21.846,0,0,1-.694,7.607.982.982,0,0,0,.945,1.249H828.06a2.768,2.768,0,0,1,2.422,2.861c0,2.017-1.11,2.789-1.431,2.835a.981.981,0,0,0,.011,1.962c.731,0,1.74.841,1.74,2.419a3.243,3.243,0,0,1-1.324,2.627.98.98,0,0,0-.133,1.457,3.262,3.262,0,0,1,.893,2.237,3.161,3.161,0,0,1-.306,1.332H808.88a.981.981,0,0,0-.98.983v7.171Zm45.878,11.576H824.988a.972.972,0,0,0-.566.182l-8.622,6.122v-5.321a.98.98,0,0,0-.982-.983h-4.954v-17.77h36.082Z" transform="translate(-797.177 -103.825)"/></g><g transform="translate(823.812 146.416)"><path class="a" d="M804.552,120.521h23.356a.98.98,0,1,0,0-1.96H804.552a.98.98,0,1,0,0,1.96Z" transform="translate(-803.572 -118.561)"/></g><g transform="translate(823.812 152.766)"><path class="a" d="M804.552,122.721h17.677a.981.981,0,0,0,0-1.962H804.552a.981.981,0,0,0,0,1.962Z" transform="translate(-803.572 -120.758)"/></g><g transform="translate(792.865 126.42)"><path class="a" d="M799.539,111.643H795.88a3.014,3.014,0,0,0-3.015,3.012v17.324A3.021,3.021,0,0,0,795.88,135h3.659a3.021,3.021,0,0,0,3.015-3.017V114.655A3.014,3.014,0,0,0,799.539,111.643Zm1.052,20.336a1.052,1.052,0,0,1-1.052,1.052H795.88a1.054,1.054,0,0,1-1.055-1.052V114.655a1.054,1.054,0,0,1,1.055-1.052h3.659a1.052,1.052,0,0,1,1.052,1.052Z" transform="translate(-792.865 -111.643)"/></g><g transform="translate(796.761 144.141)"><path class="a" d="M795.161,117.774a.947.947,0,1,0,.945.945A.946.946,0,0,0,795.161,117.774Z" transform="translate(-794.213 -117.774)"/></g></g></svg>