<svg xmlns="http://www.w3.org/2000/svg" width="47.4" height="47.399" viewBox="0 0 47.4 47.399"><defs><style>.a{fill:#c4161c;}</style></defs><g transform="translate(-250.774 -400.94)"><g transform="translate(250.774 400.94)"><path class="a" d="M274.474,400.94a23.7,23.7,0,1,0,23.7,23.7A23.726,23.726,0,0,0,274.474,400.94Zm0,45.963a22.263,22.263,0,1,1,22.263-22.263A22.288,22.288,0,0,1,274.474,446.9Z" transform="translate(-250.774 -400.94)"/></g><g transform="translate(255.082 405.25)"><path class="a" d="M272.2,402.977a19.391,19.391,0,1,0,19.39,19.39A19.411,19.411,0,0,0,272.2,402.977Zm9.586,34.56-.643-1.117a.719.719,0,0,0-1.246.717l.648,1.122a17.843,17.843,0,0,1-7.626,2.044v-1.295a.717.717,0,1,0-1.435,0V440.3a17.827,17.827,0,0,1-7.626-2.044l.645-1.122a.718.718,0,0,0-1.244-.717l-.645,1.117a18.11,18.11,0,0,1-5.582-5.582l1.117-.647a.718.718,0,1,0-.717-1.244l-1.121.65a17.893,17.893,0,0,1-2.046-7.628h1.3a.717.717,0,1,0,0-1.435h-1.3a17.876,17.876,0,0,1,2.046-7.628l1.121.645a.682.682,0,0,0,.358.1.72.72,0,0,0,.36-1.344l-1.117-.643a18.081,18.081,0,0,1,5.582-5.58l.645,1.115a.718.718,0,0,0,.622.36.7.7,0,0,0,.358-.1.718.718,0,0,0,.264-.982l-.648-1.119a17.818,17.818,0,0,1,7.628-2.048v1.3a.717.717,0,1,0,1.435,0v-1.3a17.834,17.834,0,0,1,7.628,2.048l-.65,1.119a.722.722,0,0,0,.265.982.7.7,0,0,0,.36.1.721.721,0,0,0,.622-.36l.643-1.115a18.057,18.057,0,0,1,5.582,5.58l-1.117.643a.721.721,0,0,0,.36,1.344.7.7,0,0,0,.36-.1l1.119-.645a17.785,17.785,0,0,1,2.046,7.628h-1.3a.717.717,0,1,0,0,1.435h1.3a17.833,17.833,0,0,1-2.046,7.628l-1.119-.65a.719.719,0,0,0-.719,1.244l1.117.647A18.086,18.086,0,0,1,281.787,437.537Z" transform="translate(-252.81 -402.977)"/></g><g transform="translate(266.932 412.223)"><path class="a" d="M271.764,423.486a7.535,7.535,0,0,0-5.1-12.3v-4.2a.717.717,0,0,0-1.435,0v4.2a7.539,7.539,0,1,0,5.512,13.316l4.035,4.031a.71.71,0,0,0,.506.212.719.719,0,0,0,.508-1.227Zm-5.813,1.308a6.1,6.1,0,1,1,6.1-6.1A6.111,6.111,0,0,1,265.952,424.794Z" transform="translate(-258.41 -406.272)"/></g><g transform="translate(271.895 419.614)"><path class="a" d="M263.334,412.129a1.067,1.067,0,0,1,1.141.973.718.718,0,0,0,1.437,0,2.435,2.435,0,0,0-1.86-2.3v-.317a.717.717,0,0,0-1.435,0v.317a2.437,2.437,0,0,0-1.862,2.3,2.34,2.34,0,0,0,2.579,2.406c1.024,0,1.141.554,1.141.973a1.157,1.157,0,0,1-2.283,0,.718.718,0,0,0-1.437,0,2.432,2.432,0,0,0,1.862,2.3v.32a.717.717,0,1,0,1.435,0v-.32a2.43,2.43,0,0,0,1.86-2.3,2.339,2.339,0,0,0-2.577-2.408c-1.024,0-1.143-.557-1.143-.971A1.069,1.069,0,0,1,263.334,412.129Z" transform="translate(-260.755 -409.765)"/></g></g></svg>