<svg xmlns="http://www.w3.org/2000/svg" width="47.4" height="44.078" viewBox="0 0 47.4 44.078"><defs><style>.a{fill:#c4161c;}</style></defs><g transform="translate(-194.949 -548.219)"><path class="a" d="M241.632,572.854h-.476l-5.95-13.281a.751.751,0,0,0-.125-.188c-.214-.241-4.283-4.67-11.751-1.361-.15.066-.307.112-.457.169a4.339,4.339,0,0,0-1.885-2.689l-.453-5.544a1.894,1.894,0,0,0-3.775,0l-.453,5.544a4.34,4.34,0,0,0-1.888,2.7c-.15-.059-.3-.119-.451-.184-7.514-3.326-11.592,1.172-11.761,1.367v0a.789.789,0,0,0-.114.18l-5.953,13.281h-.472a.721.721,0,0,0-.719.722c0,3.386,3.5,6.137,7.8,6.137s7.8-2.751,7.8-6.137a.718.718,0,0,0-.715-.722h-.476l-5.745-12.819c.992-.872,4.289-3.125,9.776-.7.32.14.643.26.971.37a4.331,4.331,0,0,0,1.39,2.645l-1.742,21.332a4.317,4.317,0,0,0-3.6,3.561h-2.62a4.319,4.319,0,0,0-4.308,4.332.715.715,0,0,0,.717.717H233.1a.735.735,0,0,0,.717-.741,4.312,4.312,0,0,0-4.306-4.308h-2.62a4.312,4.312,0,0,0-3.6-3.561l-1.742-21.332a4.334,4.334,0,0,0,1.388-2.639q.5-.168.973-.377c5.489-2.429,8.786-.171,9.776.7l-5.745,12.817h-.474a.72.72,0,0,0-.717.722c0,3.386,3.5,6.137,7.8,6.137s7.8-2.751,7.8-6.137A.72.72,0,0,0,241.632,572.854Zm-38.883,5.423c-3.18,0-5.819-1.733-6.289-3.984h12.578C208.568,576.545,205.927,578.278,202.749,578.278Zm-5.034-5.423,5.034-11.23,5.034,11.23Zm20.477-22.777a.457.457,0,0,1,.912,0l.394,4.818a4.3,4.3,0,0,0-1.7,0Zm.457,6.173a2.895,2.895,0,1,1-2.9,2.893A2.9,2.9,0,0,1,218.649,556.25ZM232.3,590.86H204.994a2.88,2.88,0,0,1,2.789-2.175h21.73A2.878,2.878,0,0,1,232.3,590.86Zm-6.867-3.612H211.861a2.88,2.88,0,0,1,2.789-2.177h7.995A2.878,2.878,0,0,1,225.433,587.248Zm-3.589-3.614h-6.393l1.67-20.441a4.221,4.221,0,0,0,3.053,0Zm12.7-22.009,5.034,11.23H229.515Zm0,16.653c-3.178,0-5.819-1.733-6.289-3.984h12.578C240.371,576.545,237.73,578.278,234.549,578.278Z" transform="translate(0 0)"/></g></svg>