<svg xmlns="http://www.w3.org/2000/svg" width="47.893" height="47.899" viewBox="0 0 47.893 47.899"><defs><style>.a{fill:#c4161c;}</style></defs><g transform="translate(-26.826 -499.568)"><g transform="translate(26.826 499.568)"><path class="a" d="M73.507,539.389l-7.559-7.561a.708.708,0,0,0-.588-.207.719.719,0,0,0-.532.325c-.225.344-.477.663-.718.99l-2.483-2.48a19.346,19.346,0,1,0-3.92,3.917l2.481,2.481c-.327.244-.646.5-.99.721a.731.731,0,0,0-.325.532.722.722,0,0,0,.207.588l7.559,7.559a4.153,4.153,0,0,0,5.87,0l1-1A4.153,4.153,0,0,0,73.507,539.389Zm-45.229-20.5a17.874,17.874,0,1,1,17.873,17.873A17.895,17.895,0,0,1,28.278,518.89Zm30.557,14.56a19.239,19.239,0,0,0,1.869-1.867l2.491,2.489a18.8,18.8,0,0,1-1.869,1.867Zm6.706.024,2.111,2.111a19.326,19.326,0,0,1-4.816,4.813l-2.111-2.108A20.473,20.473,0,0,0,65.541,533.474Zm6.939,10.754-1,1a2.7,2.7,0,0,1-3.815,0l-3.787-3.789a20.38,20.38,0,0,0,4.818-4.811l3.785,3.783A2.7,2.7,0,0,1,72.48,544.228Z" transform="translate(-26.826 -499.568)"/></g><g transform="translate(32.035 504.775)"><path class="a" d="M43.377,502A14.117,14.117,0,1,0,57.5,516.118,14.132,14.132,0,0,0,43.377,502Zm0,26.779a12.663,12.663,0,1,1,12.666-12.663A12.676,12.676,0,0,1,43.377,528.782Z" transform="translate(-29.262 -502.003)"/></g><g transform="translate(41.574 509.24)"><path class="a" d="M41.428,510.241a.725.725,0,1,0,1.45,0,4.342,4.342,0,0,0-3.851-4.166v-1.26a.726.726,0,0,0-1.452,0v1.26a4.342,4.342,0,0,0-3.851,4.166,3.987,3.987,0,0,0,3.851,4.187v5.508a2.868,2.868,0,0,1-2.4-2.692.724.724,0,1,0-1.448,0,4.346,4.346,0,0,0,3.851,4.168v1.257a.726.726,0,0,0,1.452,0v-1.257a4.346,4.346,0,0,0,3.851-4.168,3.986,3.986,0,0,0-3.851-4.187v-5.508A2.868,2.868,0,0,1,41.428,510.241Zm-6.257,0a2.868,2.868,0,0,1,2.4-2.692v5.419A2.508,2.508,0,0,1,35.171,510.241Zm6.257,7a2.868,2.868,0,0,1-2.4,2.692v-5.419A2.506,2.506,0,0,1,41.428,517.244Z" transform="translate(-33.723 -504.091)"/></g></g></svg>