<svg xmlns="http://www.w3.org/2000/svg" width="44.128" height="43.704" viewBox="0 0 44.128 43.704"><defs><style>.a{fill:#c4161c;}</style></defs><g transform="translate(-82.502 -351.95)"><path class="a" d="M123.954,358.358h-12.37v-1.728a4.686,4.686,0,0,0-4.679-4.681h-4.681a4.686,4.686,0,0,0-4.681,4.681v1.728H85.175a2.677,2.677,0,0,0-2.673,2.675v28.748a2.679,2.679,0,0,0,2.673,2.675h3.552a3.862,3.862,0,0,0,7.608,0h16.418a3.862,3.862,0,0,0,7.608,0h3.593a2.68,2.68,0,0,0,2.675-2.675V361.034A2.679,2.679,0,0,0,123.954,358.358Zm-34.1,32.761H85.175a1.338,1.338,0,0,1-1.338-1.338V374.254a5.339,5.339,0,0,0,4.013,1.82h.979v1a2.661,2.661,0,0,0,1.026,2.09Zm0-19.475a2.659,2.659,0,0,0-1.026,2.092v1h-.979a4.02,4.02,0,0,1-4.013-4.015v-9.692a1.341,1.341,0,0,1,1.338-1.34h4.681Zm1.338-11.95h2.675v11.4a2.4,2.4,0,0,0-.359-.037H91.5a2.317,2.317,0,0,0-.309.032Zm-1.026,14.042A1.337,1.337,0,0,1,91.5,372.4H93.51a1.339,1.339,0,0,1,1.338,1.338v3.343a1.34,1.34,0,0,1-1.338,1.338H91.5a1.338,1.338,0,0,1-1.336-1.338Zm3.7,5.981v11.4H91.194v-11.4a2.7,2.7,0,0,0,.309.03H93.51A2.7,2.7,0,0,0,93.869,379.717Zm-1.338,14.6a2.526,2.526,0,0,1-2.427-1.86h4.854A2.526,2.526,0,0,1,92.531,394.317Zm25.4-34.622V371.1a2.369,2.369,0,0,0-.374-.039h-2.007a2.443,2.443,0,0,0-.294.029v-11.4Zm.961,14.042v3.343a1.339,1.339,0,0,1-1.336,1.338h-2.007a1.339,1.339,0,0,1-1.336-1.338v-3.343a1.337,1.337,0,0,1,1.336-1.338h2.007A1.337,1.337,0,0,1,118.9,373.736Zm-3.637,5.989a2.909,2.909,0,0,0,.294.028h2.007a2.618,2.618,0,0,0,.374-.037v11.4h-2.675ZM98.882,356.631a3.346,3.346,0,0,1,3.343-3.343h4.681a3.347,3.347,0,0,1,3.343,3.343v1.728H98.882Zm-3.676,3.063h18.719v11.938a2.66,2.66,0,0,0-1.044,2.1v1h-16.7v-1a2.656,2.656,0,0,0-.977-2.051Zm0,31.425V379.13a2.656,2.656,0,0,0,.977-2.051v-1h16.7v1a2.667,2.667,0,0,0,1.044,2.106v11.934Zm21.353,3.2a2.527,2.527,0,0,1-2.429-1.86h4.856A2.526,2.526,0,0,1,116.559,394.317Zm8.733-4.535a1.338,1.338,0,0,1-1.338,1.338h-4.681v-12a2.66,2.66,0,0,0,.961-2.037v-1h.376a6,6,0,0,0,4.681-2.242Zm0-19.724a4.688,4.688,0,0,1-4.681,4.683h-.376v-1a2.657,2.657,0,0,0-.961-2.037V359.694h4.681a1.341,1.341,0,0,1,1.338,1.34Z"/></g></svg>