<svg xmlns="http://www.w3.org/2000/svg" width="43.704" height="43.704" viewBox="0 0 43.704 43.704"><defs><style>.a{fill:#c4161c;}</style></defs><g transform="translate(-626.555 -548.813)"><g transform="translate(626.555 548.812)"><path class="a" d="M666.95,548.812H629.866a3.315,3.315,0,0,0-3.311,3.311v37.084a3.316,3.316,0,0,0,3.311,3.309H666.95a3.315,3.315,0,0,0,3.309-3.309V552.123A3.314,3.314,0,0,0,666.95,548.812Zm-39.07,3.311a1.987,1.987,0,0,1,1.986-1.986H666.95a1.988,1.988,0,0,1,1.986,1.986v2.712H627.88Zm39.07,39.068H629.866a1.986,1.986,0,0,1-1.986-1.984V556.16h41.057v33.047A1.988,1.988,0,0,1,666.95,591.191Z" transform="translate(-626.555 -548.812)"/></g><g transform="translate(665.28 551.833)"><path class="a" d="M646.594,550.545a.664.664,0,0,0,.47,1.132.666.666,0,0,0,.462-.191.681.681,0,0,0,.2-.472.662.662,0,0,0-.2-.468A.682.682,0,0,0,646.594,550.545Z" transform="translate(-646.403 -550.36)"/></g><g transform="translate(661.267 551.824)"><path class="a" d="M645.007,550.356a.662.662,0,1,0,.661.661A.659.659,0,0,0,645.007,550.356Z" transform="translate(-644.346 -550.356)"/></g><g transform="translate(657.259 551.833)"><path class="a" d="M642.485,550.545a.7.7,0,0,0-.193.468.666.666,0,0,0,.663.663.688.688,0,0,0,.47-.191.7.7,0,0,0,.191-.472.672.672,0,0,0-.191-.468A.692.692,0,0,0,642.485,550.545Z" transform="translate(-642.292 -550.36)"/></g><g transform="translate(634.178 561.076)"><path class="a" d="M644.691,555.1c-7.845,0-14.229,5.645-14.229,12.582s6.384,12.581,14.229,12.581a15.6,15.6,0,0,0,7.375-1.828l5.241,1.773a.661.661,0,0,0,.855-.784l-1.288-5.26a11.465,11.465,0,0,0,2.047-6.482C658.92,560.743,652.536,555.1,644.691,555.1Zm10.825,19.089,1.073,4.378-4.376-1.483a.677.677,0,0,0-.536.051,14.239,14.239,0,0,1-6.985,1.8c-7.116,0-12.9-5.049-12.9-11.258s5.789-11.258,12.9-11.258,12.9,5.049,12.9,11.258a10.177,10.177,0,0,1-1.975,5.963A.658.658,0,0,0,655.516,574.187Z" transform="translate(-630.462 -555.098)"/></g><g transform="translate(645.719 564.346)"><path class="a" d="M639.025,562.069a2.648,2.648,0,1,0-2.648-2.646A2.651,2.651,0,0,0,639.025,562.069Zm0-3.972a1.325,1.325,0,1,1-1.325,1.327A1.328,1.328,0,0,1,639.025,558.1Z" transform="translate(-636.377 -556.774)"/></g><g transform="translate(645.055 570.968)"><path class="a" d="M642,570.846h-.458V560.831a.659.659,0,0,0-.66-.663H636.7a.662.662,0,1,0,0,1.325h.536v9.354H636.7a.662.662,0,1,0,0,1.325H642a.662.662,0,0,0,0-1.325Zm-3.436,0v-9.354h1.655v9.354Z" transform="translate(-636.037 -560.168)"/></g></g></svg>