<svg xmlns="http://www.w3.org/2000/svg" width="50.556" height="50.557" viewBox="0 0 50.556 50.557"><defs><style>.a{fill:#c4161c;}</style></defs><g transform="translate(-792.678 -249.215)"><g transform="translate(792.678 249.215)"><path class="a" d="M828.679,268.366V249.98a.762.762,0,0,0-.763-.765H793.443a.764.764,0,0,0-.765.765v18.385a.766.766,0,0,0,.765.765h3.735V274.4a.769.769,0,0,0,1.23.612l7.741-5.877h21.766A.764.764,0,0,0,828.679,268.366Zm-1.53-.767H805.891a.783.783,0,0,0-.463.156l-6.717,5.1v-4.489a.766.766,0,0,0-.765-.767h-3.735V250.747h32.938Z" transform="translate(-792.678 -249.215)"/></g><g transform="translate(807.231 273.823)"><path class="a" d="M834.365,260.118H799.893a.768.768,0,0,0-.767.765v18.385a.764.764,0,0,0,.767.763h21.764l7.744,5.879a.772.772,0,0,0,.463.156.72.72,0,0,0,.339-.081.761.761,0,0,0,.426-.686v-5.268h3.735a.764.764,0,0,0,.765-.763V260.883A.767.767,0,0,0,834.365,260.118ZM833.6,278.5h-3.733a.765.765,0,0,0-.767.765v4.489l-6.717-5.1a.76.76,0,0,0-.463-.153H800.659V261.648H833.6Z" transform="translate(-799.126 -260.118)"/></g><g transform="translate(817.277 253.799)"><path class="a" d="M804.342,255.426a.765.765,0,0,0,.763-.765,1.883,1.883,0,0,1,3.767,0c0,.711-.312.97-.966,1.447a3.3,3.3,0,0,0-1.684,2.907.767.767,0,0,0,1.535,0c0-.905.417-1.21,1.052-1.67a3.1,3.1,0,0,0,1.6-2.684,3.414,3.414,0,1,0-6.827,0A.766.766,0,0,0,804.342,255.426Z" transform="translate(-803.577 -251.246)"/></g><g transform="translate(819.922 263.332)"><path class="a" d="M805.516,255.47a.784.784,0,0,0-.767.785.767.767,0,0,0,1.535,0v-.041A.748.748,0,0,0,805.516,255.47Z" transform="translate(-804.749 -255.47)"/></g><g transform="translate(797.465 254.171)"><path class="a" d="M795.566,252.941h15.8a.765.765,0,1,0,0-1.53h-15.8a.765.765,0,1,0,0,1.53Z" transform="translate(-794.799 -251.411)"/></g><g transform="translate(797.465 258.503)"><path class="a" d="M795.566,254.863h15.8a.766.766,0,0,0,0-1.533h-15.8a.766.766,0,1,0,0,1.533Z" transform="translate(-794.799 -253.33)"/></g><g transform="translate(797.465 262.98)"><path class="a" d="M795.566,256.844h11.2a.765.765,0,1,0,0-1.53h-11.2a.765.765,0,1,0,0,1.53Z" transform="translate(-794.799 -255.314)"/></g><g transform="translate(812.117 278.587)"><path class="a" d="M802.054,263.759h10.055a.765.765,0,0,0,0-1.53H802.054a.765.765,0,0,0,0,1.53Z" transform="translate(-801.291 -262.229)"/></g><g transform="translate(826.671 278.587)"><path class="a" d="M808.506,263.759h6.22a.765.765,0,1,0,0-1.53h-6.22a.765.765,0,1,0,0,1.53Z" transform="translate(-807.739 -262.229)"/></g><g transform="translate(822.075 282.921)"><path class="a" d="M817.286,264.149H806.468a.764.764,0,1,0,0,1.528h10.818a.764.764,0,1,0,0-1.528Z" transform="translate(-805.703 -264.149)"/></g><g transform="translate(812.117 282.921)"><path class="a" d="M802.054,265.677h5.841a.764.764,0,1,0,0-1.528h-5.841a.764.764,0,0,0,0,1.528Z" transform="translate(-801.291 -264.149)"/></g><g transform="translate(812.117 287.396)"><path class="a" d="M802.054,267.665h13.531a.766.766,0,0,0,0-1.533H802.054a.766.766,0,0,0,0,1.533Z" transform="translate(-801.291 -266.132)"/></g><g transform="translate(837.488 278.587)"><path class="a" d="M813.3,269.144a.763.763,0,0,0,.765-.765v-5.388a.766.766,0,0,0-1.533,0v5.388A.766.766,0,0,0,813.3,269.144Z" transform="translate(-812.532 -262.229)"/></g><g transform="translate(837.488 287.503)"><path class="a" d="M813.3,267.7a.763.763,0,1,0-.544-.223A.8.8,0,0,0,813.3,267.7Z" transform="translate(-812.532 -266.179)"/></g></g></svg>