<svg xmlns="http://www.w3.org/2000/svg" width="50" height="50" viewBox="0 0 50 50"><defs><style>.a{fill:#25d366;stroke:#fff;}.b{fill:#fff;}.c{stroke:none;}.d{fill:none;}</style></defs><g transform="translate(-1816 -909)"><g transform="translate(64 -13)"><g class="a" transform="translate(1752 922)"><rect class="c" width="50" height="50" rx="5"/><rect class="d" x="0.5" y="0.5" width="49" height="49" rx="4.5"/></g></g><path class="b" d="M.057,24l1.687-6.163a11.892,11.892,0,1,1,4.618,4.509L.057,24Zm6.6-3.807a9.861,9.861,0,1,0-2.743-2.667l-1,3.648,3.742-.981Zm11.387-5.464c-.074-.124-.272-.2-.57-.347s-1.758-.868-2.031-.967-.47-.149-.669.149-.768.967-.941,1.165-.347.223-.644.074a8.111,8.111,0,0,1-2.39-1.475,8.945,8.945,0,0,1-1.653-2.059c-.173-.3-.018-.458.13-.606s.3-.347.446-.521a1.949,1.949,0,0,0,.3-.495.546.546,0,0,0-.025-.521c-.075-.148-.669-1.611-.916-2.206-.242-.579-.487-.5-.669-.51l-.57-.01a1.089,1.089,0,0,0-.792.372,3.334,3.334,0,0,0-1.04,2.479A5.783,5.783,0,0,0,7.22,12.325,13.249,13.249,0,0,0,12.3,16.812a17.194,17.194,0,0,0,1.694.626,4.085,4.085,0,0,0,1.872.118,3.061,3.061,0,0,0,2.006-1.413,2.476,2.476,0,0,0,.173-1.414Z" transform="translate(1828.943 922)"/></g></svg>