<svg xmlns="http://www.w3.org/2000/svg" width="272.146" height="84.051" viewBox="0 0 272.146 84.051"><defs><style>.a{fill:#fff;}</style></defs><g transform="translate(-38.374 -48.041)"><g transform="translate(38.374 48.041)"><path class="a" d="M65.578,102.483a27.225,27.225,0,0,1-27.2-27.239,27.225,27.225,0,0,1,27.2-27.2,26.924,26.924,0,0,1,9.984,1.905,26.5,26.5,0,0,1,8.127,5.023L81.874,56.9a24.93,24.93,0,0,0-7.27-4.494A24.385,24.385,0,0,0,65.578,50.7,24.6,24.6,0,0,0,41.033,75.243,24.53,24.53,0,0,0,65.578,99.788a24.541,24.541,0,0,0,16.3-6.168l1.812,1.931a27.271,27.271,0,0,1-8.126,5.026A26.924,26.924,0,0,1,65.578,102.483Z" transform="translate(-38.374 -48.041)"/><path class="a" d="M91.374,98.236A21.238,21.238,0,0,1,70.134,77,21.239,21.239,0,0,1,106.376,61.96a19.388,19.388,0,0,1,2.382,2.8l1.2,2.134V57.744h2.658v38.5h-2.658v-9l-1.2,1.947a19.2,19.2,0,0,1-2.376,2.795A20.47,20.47,0,0,1,91.374,98.236Zm0-39.822A18.571,18.571,0,0,0,78.225,90.109a18.583,18.583,0,0,0,26.3-26.261A18.077,18.077,0,0,0,91.374,58.414Z" transform="translate(-20.743 -43.759)"/><path class="a" d="M101.878,115.328V57.72h2.658v8.367l1.2-1.35a21.054,21.054,0,0,1,2.348-2.8,21.258,21.258,0,0,1,36.276,15.038,21.241,21.241,0,0,1-36.276,15,20.679,20.679,0,0,1-2.348-2.8l-1.2-1.746v27.9Zm21.24-56.938a18.57,18.57,0,0,0-13.149,31.695,18.582,18.582,0,0,0,26.3-26.261A18.076,18.076,0,0,0,123.118,58.391Z" transform="translate(-3.122 -43.771)"/><path class="a" d="M134.673,99.773v-38.5h2.659v38.5Zm0-47.736v-2.7h2.659v2.7Z" transform="translate(15.083 -47.319)"/><path class="a" d="M148.418,99.786V63.794h-7.95V61.28l7.95,0V49.319h2.7V61.283l7.95,0v2.514h-7.95V99.786Z" transform="translate(18.301 -47.332)"/><path class="a" d="M175.769,98.236A21.238,21.238,0,0,1,154.529,77a21.239,21.239,0,0,1,36.24-15.038,19.386,19.386,0,0,1,2.382,2.8l1.2,2.051V57.744h2.659v38.5h-2.659V87.33l-1.2,1.866a19.2,19.2,0,0,1-2.376,2.795A20.464,20.464,0,0,1,175.769,98.236Zm0-39.822A18.57,18.57,0,0,0,162.62,90.109a18.582,18.582,0,0,0,26.3-26.261A18.071,18.071,0,0,0,175.769,58.414Z" transform="translate(26.106 -43.759)"/><rect class="a" width="2.658" height="50.467" transform="translate(232.721 1.987)"/></g><g transform="translate(148.015 105.114)"><g transform="translate(73.002 1.879)"><path class="a" d="M169.723,99.757a6.482,6.482,0,1,1-5.7-3.392V94.641h-.154a3.484,3.484,0,1,1,3.485-3.483h1.723a5.207,5.207,0,1,0-8.329,4.166,8.207,8.207,0,1,0,10.872,4.426h-1.885Z" transform="translate(-155.82 -85.949)"/></g><path class="a" d="M108.877,98.893h1.805l5.539-14.152h.491l5.58,14.152h1.826v.277H117.8v-.277h2.277L117.923,93.4h-4.759l-2.154,5.494h2.277v.277h-4.41Zm6.667-11.523-2.256,5.752H117.8Z" transform="translate(-108.877 -84.741)"/><path class="a" d="M129.924,97.046h-3.3v-2h-.04a7.113,7.113,0,0,1-.442.8,3.248,3.248,0,0,1-.636.731,3.2,3.2,0,0,1-.882.533,3.07,3.07,0,0,1-1.179.208,4.17,4.17,0,0,1-1.334-.177,2.9,2.9,0,0,1-1.117-.624,1.451,1.451,0,0,1-.319-.4,2.725,2.725,0,0,1-.246-.662,4.14,4.14,0,0,1-.1-1V88.843h-1.58v-.277h3.343v6.068a5.783,5.783,0,0,0,.072.949,2.041,2.041,0,0,0,.277.762,1.5,1.5,0,0,0,.533.513,1.721,1.721,0,0,0,.862.188,1.976,1.976,0,0,0,.933-.257,3,3,0,0,0,.883-.732,4.139,4.139,0,0,0,.666-1.135,3.947,3.947,0,0,0,.267-1.493V88.843h-1.558v-.277h3.322v8.2h1.58Z" transform="translate(-103.4 -82.618)"/><path class="a" d="M126.83,95.853a1.928,1.928,0,0,1,.205-.919,2.654,2.654,0,0,1,.5-.672,2.753,2.753,0,0,1,.636-.465c.225-.118.428-.218.6-.3a2.442,2.442,0,0,1-1.19-2.134,2.292,2.292,0,0,1,.348-1.246,3.36,3.36,0,0,1,.882-.939A4.023,4.023,0,0,1,130,88.6a4.276,4.276,0,0,1,1.241-.2,3.322,3.322,0,0,1,1.589.356,4.48,4.48,0,0,1,.975.652,2.378,2.378,0,0,1,.666-.692,1.84,1.84,0,0,1,1.1-.316,1.727,1.727,0,0,1,.759.168.717.717,0,0,1,.348.722.624.624,0,0,1-.235.533.79.79,0,0,1-.482.179.487.487,0,0,1-.411-.159,2.247,2.247,0,0,1-.216-.336,3.872,3.872,0,0,0-.194-.336.342.342,0,0,0-.308-.159.686.686,0,0,0-.42.168,2.024,2.024,0,0,0-.379.386,4.423,4.423,0,0,1,.471.672,2.258,2.258,0,0,1,.288,1.187,2.016,2.016,0,0,1-.308,1.087,3.2,3.2,0,0,1-.81.869,3.851,3.851,0,0,1-1.169.583,4.561,4.561,0,0,1-1.364.207,3.8,3.8,0,0,1-1.252-.187q-.532-.189-.82-.327c-.151.065-.311.138-.482.218a2.215,2.215,0,0,0-.473.3,1.611,1.611,0,0,0-.359.426,1.11,1.11,0,0,0-.143.563.932.932,0,0,0,.123.495.8.8,0,0,0,.319.3,1.46,1.46,0,0,0,.44.138,3.235,3.235,0,0,0,.513.04h3.241a3.63,3.63,0,0,1,2.288.662,2.472,2.472,0,0,1,.851,2.084,3.238,3.238,0,0,1-.389,1.582,4.148,4.148,0,0,1-1.036,1.236,4.83,4.83,0,0,1-1.488.81,5.339,5.339,0,0,1-1.723.286,5.7,5.7,0,0,1-1.466-.177,4.258,4.258,0,0,1-1.159-.485,2.392,2.392,0,0,1-.77-.74,1.777,1.777,0,0,1-.277-.969,2.05,2.05,0,0,1,.215-.939,2.82,2.82,0,0,1,.555-.751,3.637,3.637,0,0,1,.768-.563,6.141,6.141,0,0,1,.862-.395v-.04a3.711,3.711,0,0,1-2-.425A1.6,1.6,0,0,1,126.83,95.853Zm3.076,1.877-.543.327a2,2,0,0,0-.493.425,2.123,2.123,0,0,0-.348.6,2.826,2.826,0,0,0,.123,2.036,2.25,2.25,0,0,0,.656.751,2.547,2.547,0,0,0,.893.406,4.18,4.18,0,0,0,.964.118,3.967,3.967,0,0,0,1.344-.218,3.462,3.462,0,0,0,1.047-.583,2.587,2.587,0,0,0,.677-.84,2.194,2.194,0,0,0,.236-.989,1.831,1.831,0,0,0-.627-1.571,2.815,2.815,0,0,0-1.712-.465Zm3.323-6.423a7.088,7.088,0,0,0-.061-.919,2.685,2.685,0,0,0-.257-.851,1.505,1.505,0,0,0-.6-.622,2.1,2.1,0,0,0-1.076-.238,1.985,1.985,0,0,0-1.58.613,3.054,3.054,0,0,0-.533,2.017,5.693,5.693,0,0,0,.092,1.067,2.1,2.1,0,0,0,.339.82,1.53,1.53,0,0,0,.656.524,2.653,2.653,0,0,0,1.047.179,1.722,1.722,0,0,0,1.518-.644A3.391,3.391,0,0,0,133.229,91.308Z" transform="translate(-98.911 -82.709)"/><path class="a" d="M135.76,92.236c0,.132,0,.267-.009.4s-.011.314-.011.524a11.971,11.971,0,0,0,.082,1.364,3.991,3.991,0,0,0,.358,1.285,2.425,2.425,0,0,0,.821.95,2.5,2.5,0,0,0,1.446.375,3.713,3.713,0,0,0,1.487-.257,2.727,2.727,0,0,0,.924-.624,2.656,2.656,0,0,0,.5-.74c.11-.25.191-.456.246-.613l.309.059a5.966,5.966,0,0,1-.236.622,2.863,2.863,0,0,1-.554.81,3.35,3.35,0,0,1-1.026.712,3.93,3.93,0,0,1-1.672.306,5.545,5.545,0,0,1-1.9-.316,4.384,4.384,0,0,1-1.508-.91,4.119,4.119,0,0,1-.984-1.414,4.636,4.636,0,0,1-.348-1.829,4.168,4.168,0,0,1,.359-1.689,4.761,4.761,0,0,1,.984-1.452,4.889,4.889,0,0,1,1.466-1.019,4.209,4.209,0,0,1,3.036-.188,3.689,3.689,0,0,1,1.221.642,3.557,3.557,0,0,1,.944,1.177,3.909,3.909,0,0,1,.379,1.818Zm4.227-.277a3.656,3.656,0,0,0,.04-.513v-.495a3.857,3.857,0,0,0-.134-1.107,1.781,1.781,0,0,0-.369-.692,1.32,1.32,0,0,0-.575-.365,2.347,2.347,0,0,0-.728-.109,2.225,2.225,0,0,0-1.149.267,1.993,1.993,0,0,0-.717.722,3.593,3.593,0,0,0-.4,1.047,7.856,7.856,0,0,0-.176,1.246Z" transform="translate(-95.103 -82.709)"/><path class="a" d="M140.02,96.846h1.58V88.92h-1.58v-.277h3.3v2.115h.042q.121-.257.358-.652a3.445,3.445,0,0,1,.647-.771,3.684,3.684,0,0,1,1.026-.642,3.759,3.759,0,0,1,1.5-.266,3.6,3.6,0,0,1,2.205.631,2.35,2.35,0,0,1,.852,2.017v5.771h1.58v.277h-4.924v-.277h1.578V90.463A2.016,2.016,0,0,0,147.8,89.2a1.394,1.394,0,0,0-1.179-.495,2.951,2.951,0,0,0-1.252.277,3.294,3.294,0,0,0-1.047.771,3.645,3.645,0,0,0-.708,1.166,4.07,4.07,0,0,0-.255,1.463v4.466h1.578v.277H140.02Z" transform="translate(-91.589 -82.695)"/><path class="a" d="M154.036,84.855h3.344V98.829h1.58v.277h-3.3v-1.72h-.04a5.62,5.62,0,0,1-.246.574,2.43,2.43,0,0,1-.484.652,2.823,2.823,0,0,1-.8.544,2.767,2.767,0,0,1-1.179.227,4.027,4.027,0,0,1-1.714-.376A4.73,4.73,0,0,1,149.769,98a4.871,4.871,0,0,1-.974-1.452,4.332,4.332,0,0,1-.011-3.429,4.568,4.568,0,0,1,.944-1.414,4.771,4.771,0,0,1,1.375-.969,3.878,3.878,0,0,1,1.661-.365,2.811,2.811,0,0,1,2.81,1.838h.042V85.132h-1.58Zm-3.549,9.724q0,1.029.062,1.868a4.632,4.632,0,0,0,.306,1.434,1.932,1.932,0,0,0,.739.91,2.455,2.455,0,0,0,1.334.316,2.259,2.259,0,0,0,2.194-1.275,4.045,4.045,0,0,0,.39-1.255,9.148,9.148,0,0,0,.1-1.344q0-.772-.031-1.334a7.7,7.7,0,0,0-.114-1,3.278,3.278,0,0,0-.225-.751,3.186,3.186,0,0,0-.348-.592,2.414,2.414,0,0,0-.8-.653,2.7,2.7,0,0,0-1.252-.257,2.253,2.253,0,0,0-1.179.277,1.875,1.875,0,0,0-.718.79,4.052,4.052,0,0,0-.359,1.236A11.654,11.654,0,0,0,150.487,94.579Z" transform="translate(-86.917 -84.678)"/><path class="a" d="M165.835,98.893h1.805l5.538-14.152h.491l5.58,14.152h1.826v.277h-6.317v-.277h2.277L174.881,93.4h-4.759l-2.154,5.494h2.277v.277h-4.41ZM172.5,87.369l-2.256,5.752h4.513Z" transform="translate(-77.258 -84.741)"/><path class="a" d="M181.908,84.855h3.344V98.829h1.58v.277h-3.3v-1.72h-.04a5.628,5.628,0,0,1-.246.574,2.456,2.456,0,0,1-.482.652,2.855,2.855,0,0,1-.8.544,2.767,2.767,0,0,1-1.179.227,4.028,4.028,0,0,1-1.714-.376A4.731,4.731,0,0,1,177.641,98a4.871,4.871,0,0,1-.973-1.452,4.332,4.332,0,0,1-.011-3.429A4.569,4.569,0,0,1,177.6,91.7a4.771,4.771,0,0,1,1.375-.969,3.878,3.878,0,0,1,1.661-.365,2.811,2.811,0,0,1,2.81,1.838h.042V85.132h-1.58Zm-3.549,9.724q0,1.029.062,1.868a4.585,4.585,0,0,0,.308,1.434,1.921,1.921,0,0,0,.737.91,2.455,2.455,0,0,0,1.334.316A2.259,2.259,0,0,0,183,97.831a4.045,4.045,0,0,0,.39-1.255,9.152,9.152,0,0,0,.1-1.344q0-.772-.031-1.334a7.684,7.684,0,0,0-.114-1,3.277,3.277,0,0,0-.225-.751,3.184,3.184,0,0,0-.348-.592,2.414,2.414,0,0,0-.8-.653,2.7,2.7,0,0,0-1.252-.257,2.253,2.253,0,0,0-1.179.277,1.875,1.875,0,0,0-.718.79,4.052,4.052,0,0,0-.359,1.236A11.664,11.664,0,0,0,178.359,94.579Z" transform="translate(-71.445 -84.678)"/><path class="a" d="M189.73,84.855h3.343V98.829h1.58v.277h-3.3v-1.72h-.04a5.62,5.62,0,0,1-.246.574,2.43,2.43,0,0,1-.484.652,2.824,2.824,0,0,1-.8.544,2.767,2.767,0,0,1-1.179.227,4.023,4.023,0,0,1-1.714-.376A4.731,4.731,0,0,1,185.463,98a4.814,4.814,0,0,1-.974-1.452,4.332,4.332,0,0,1-.011-3.429,4.569,4.569,0,0,1,.944-1.414,4.75,4.75,0,0,1,1.375-.969,3.878,3.878,0,0,1,1.661-.365,2.811,2.811,0,0,1,2.81,1.838h.042V85.132h-1.58Zm-3.549,9.724q0,1.029.062,1.868a4.632,4.632,0,0,0,.306,1.434,1.933,1.933,0,0,0,.739.91,2.455,2.455,0,0,0,1.334.316,2.259,2.259,0,0,0,2.194-1.275,4.046,4.046,0,0,0,.39-1.255,9.152,9.152,0,0,0,.1-1.344q0-.772-.031-1.334a7.689,7.689,0,0,0-.114-1,3.277,3.277,0,0,0-.225-.751,3.184,3.184,0,0,0-.348-.592,2.414,2.414,0,0,0-.8-.653,2.7,2.7,0,0,0-1.252-.257,2.253,2.253,0,0,0-1.179.277,1.875,1.875,0,0,0-.718.79,4.052,4.052,0,0,0-.359,1.236A11.659,11.659,0,0,0,186.181,94.579Z" transform="translate(-67.103 -84.678)"/><path class="a" d="M193.931,92.236c0,.132,0,.267-.011.4s-.009.314-.009.524a11.958,11.958,0,0,0,.081,1.364,3.992,3.992,0,0,0,.359,1.285,2.425,2.425,0,0,0,.821.95,2.5,2.5,0,0,0,1.446.375,3.719,3.719,0,0,0,1.487-.257,2.727,2.727,0,0,0,.924-.624,2.656,2.656,0,0,0,.5-.74c.109-.25.191-.456.246-.613l.308.059a5.323,5.323,0,0,1-.236.622,2.8,2.8,0,0,1-.554.81,3.342,3.342,0,0,1-1.025.712,3.93,3.93,0,0,1-1.672.306,5.554,5.554,0,0,1-1.9-.316,4.392,4.392,0,0,1-1.507-.91,4.077,4.077,0,0,1-.984-1.414,4.609,4.609,0,0,1-.348-1.829,4.166,4.166,0,0,1,.358-1.689,4.738,4.738,0,0,1,.986-1.452,4.889,4.889,0,0,1,1.466-1.019,4.209,4.209,0,0,1,3.036-.188,3.7,3.7,0,0,1,1.221.642,3.535,3.535,0,0,1,.942,1.177,3.909,3.909,0,0,1,.381,1.818Zm4.225-.277a3.446,3.446,0,0,0,.042-.513v-.495a3.857,3.857,0,0,0-.134-1.107,1.782,1.782,0,0,0-.37-.692,1.315,1.315,0,0,0-.574-.365,2.347,2.347,0,0,0-.728-.109,2.221,2.221,0,0,0-1.149.267,2.01,2.01,0,0,0-.718.722,3.638,3.638,0,0,0-.4,1.047,7.854,7.854,0,0,0-.174,1.246Z" transform="translate(-62.812 -82.709)"/><path class="a" d="M198.191,96.846h1.58V88.92h-1.58v-.277h3.3v2.115h.04q.124-.257.359-.652a3.435,3.435,0,0,1,.645-.771,3.684,3.684,0,0,1,1.026-.642,3.772,3.772,0,0,1,1.5-.266,3.605,3.605,0,0,1,2.205.631,2.349,2.349,0,0,1,.851,2.017v5.771h1.58v.277h-4.923v-.277h1.58V90.463a2.016,2.016,0,0,0-.379-1.266A1.4,1.4,0,0,0,204.8,88.7a2.946,2.946,0,0,0-1.252.277,3.294,3.294,0,0,0-1.047.771,3.644,3.644,0,0,0-.708,1.166,4.07,4.07,0,0,0-.257,1.463v4.466h1.58v.277h-4.923Z" transform="translate(-59.297 -82.695)"/><path class="a" d="M212.207,84.855h3.344V98.829h1.58v.277h-3.3v-1.72h-.042a5,5,0,0,1-.246.574,2.39,2.39,0,0,1-.482.652,2.846,2.846,0,0,1-.8.544,2.769,2.769,0,0,1-1.18.227,4.021,4.021,0,0,1-1.712-.376A4.711,4.711,0,0,1,207.94,98a4.813,4.813,0,0,1-.974-1.452,4.332,4.332,0,0,1-.011-3.429A4.541,4.541,0,0,1,207.9,91.7a4.764,4.764,0,0,1,1.373-.969,3.89,3.89,0,0,1,1.662-.365,2.811,2.811,0,0,1,2.81,1.838h.04V85.132h-1.578Zm-3.549,9.724q0,1.029.061,1.868a4.676,4.676,0,0,0,.308,1.434,1.933,1.933,0,0,0,.739.91,2.453,2.453,0,0,0,1.333.316,2.259,2.259,0,0,0,2.2-1.275,4.043,4.043,0,0,0,.389-1.255,9.148,9.148,0,0,0,.1-1.344q0-.772-.03-1.334a7.965,7.965,0,0,0-.114-1,3.354,3.354,0,0,0-.225-.751,3.271,3.271,0,0,0-.348-.592,2.419,2.419,0,0,0-.8-.653,2.693,2.693,0,0,0-1.25-.257,2.263,2.263,0,0,0-1.18.277,1.871,1.871,0,0,0-.717.79,4.051,4.051,0,0,0-.359,1.236A11.659,11.659,0,0,0,208.658,94.579Z" transform="translate(-54.625 -84.678)"/></g></g></svg>