<svg xmlns="http://www.w3.org/2000/svg" width="164.368" height="50.764" viewBox="0 0 164.368 50.764"><defs><style>.a{fill:#fff;}</style></defs><g transform="translate(-38.374 -48.041)"><g transform="translate(38.374 48.041)"><path class="a" d="M54.8,80.922A16.443,16.443,0,0,1,38.374,64.47,16.443,16.443,0,0,1,54.8,48.041a16.261,16.261,0,0,1,6.03,1.151,16,16,0,0,1,4.909,3.034l-1.1,1.168a15.057,15.057,0,0,0-4.391-2.714A14.728,14.728,0,0,0,54.8,49.646,14.857,14.857,0,0,0,39.98,64.47,14.815,14.815,0,0,0,54.8,79.294a14.822,14.822,0,0,0,9.843-3.725l1.094,1.167a16.47,16.47,0,0,1-4.908,3.036A16.261,16.261,0,0,1,54.8,80.922Z" transform="translate(-38.374 -48.041)"/><path class="a" d="M82.962,81.412A12.845,12.845,0,0,1,73.881,59.5a12.855,12.855,0,0,1,18.142,0A11.71,11.71,0,0,1,93.462,61.2l.723,1.289V56.956H95.79V80.212H94.185V74.777l-.723,1.176a11.6,11.6,0,0,1-1.435,1.688A12.363,12.363,0,0,1,82.962,81.412Zm0-24.051A11.2,11.2,0,1,0,90.9,60.643,10.913,10.913,0,0,0,82.962,57.361Z" transform="translate(-40.304 -48.51)"/><path class="a" d="M101.878,91.727V56.933h1.605v5.053l.723-.815a12.716,12.716,0,0,1,1.418-1.693A12.828,12.828,0,1,1,123.767,77.62a12.8,12.8,0,0,1-18.142,0,12.49,12.49,0,0,1-1.418-1.693l-.723-1.055V91.727Zm12.828-34.389a11.2,11.2,0,1,0,7.941,3.282A10.916,10.916,0,0,0,114.706,57.338Z" transform="translate(-42.232 -48.508)"/><path class="a" d="M134.673,79.8V56.545h1.606V79.8Zm0-28.831V49.342h1.606V50.97Z" transform="translate(-44.225 -48.12)"/><path class="a" d="M145.27,79.8V58.062h-4.8V56.543l4.8,0V49.319H146.9v7.226l4.8,0v1.518h-4.8V79.8Z" transform="translate(-44.577 -48.119)"/><path class="a" d="M167.357,81.412A12.844,12.844,0,0,1,158.277,59.5a12.854,12.854,0,0,1,18.141,0,11.709,11.709,0,0,1,1.439,1.693l.723,1.239V56.956h1.606V80.212h-1.606V74.825l-.723,1.127a11.6,11.6,0,0,1-1.435,1.688A12.36,12.36,0,0,1,167.357,81.412Zm0-24.051a11.2,11.2,0,1,0,7.941,3.282A10.913,10.913,0,0,0,167.357,57.361Z" transform="translate(-45.431 -48.51)"/><rect class="a" width="1.605" height="30.48" transform="translate(140.557 1.2)"/></g><g transform="translate(104.594 82.511)"><g transform="translate(44.091 1.135)"><path class="a" d="M164.217,94.289a3.915,3.915,0,1,1-3.442-2.048V91.2h-.093a2.1,2.1,0,1,1,2.1-2.1h1.041a3.145,3.145,0,1,0-5.031,2.516,4.957,4.957,0,1,0,6.566,2.673h-1.138Z" transform="translate(-155.82 -85.949)"/></g><path class="a" d="M108.877,93.288h1.09l3.346-8.547h.3l3.37,8.547h1.1v.167h-3.816v-.167h1.375l-1.3-3.318h-2.874l-1.3,3.318h1.375v.167h-2.664Zm4.027-6.96L111.541,89.8h2.726Z" transform="translate(-108.877 -84.741)"/><path class="a" d="M125.5,93.688H123.5V92.482h-.024a4.3,4.3,0,0,1-.267.484,1.962,1.962,0,0,1-.384.441,1.933,1.933,0,0,1-.533.322,1.854,1.854,0,0,1-.712.126,2.519,2.519,0,0,1-.806-.107,1.753,1.753,0,0,1-.674-.377.876.876,0,0,1-.193-.244,1.646,1.646,0,0,1-.148-.4,2.5,2.5,0,0,1-.062-.6V88.733h-.954v-.167h2.019v3.665a3.493,3.493,0,0,0,.043.573,1.233,1.233,0,0,0,.167.46.909.909,0,0,0,.322.31,1.04,1.04,0,0,0,.52.114,1.194,1.194,0,0,0,.564-.155,1.814,1.814,0,0,0,.534-.442,2.5,2.5,0,0,0,.4-.686,2.384,2.384,0,0,0,.162-.9v-2.77h-.941v-.167h2.006v4.955h.954Z" transform="translate(-109.476 -84.973)"/><path class="a" d="M126.83,92.9a1.164,1.164,0,0,1,.124-.555,1.6,1.6,0,0,1,.3-.406,1.663,1.663,0,0,1,.384-.281c.136-.071.258-.131.365-.179a1.475,1.475,0,0,1-.719-1.289,1.384,1.384,0,0,1,.21-.752,2.03,2.03,0,0,1,.533-.567,2.43,2.43,0,0,1,.713-.352,2.583,2.583,0,0,1,.75-.119,2.006,2.006,0,0,1,.96.215,2.705,2.705,0,0,1,.589.394,1.437,1.437,0,0,1,.4-.418,1.111,1.111,0,0,1,.663-.191,1.043,1.043,0,0,1,.458.1.433.433,0,0,1,.21.436.377.377,0,0,1-.142.322.477.477,0,0,1-.291.108.294.294,0,0,1-.248-.1,1.357,1.357,0,0,1-.131-.2,2.336,2.336,0,0,0-.117-.2.207.207,0,0,0-.186-.1.414.414,0,0,0-.254.1,1.223,1.223,0,0,0-.229.233,2.671,2.671,0,0,1,.285.406,1.364,1.364,0,0,1,.174.717,1.218,1.218,0,0,1-.186.657,1.931,1.931,0,0,1-.489.525,2.326,2.326,0,0,1-.706.352,2.755,2.755,0,0,1-.824.125,2.292,2.292,0,0,1-.756-.113q-.321-.114-.495-.2c-.091.039-.188.084-.291.131a1.338,1.338,0,0,0-.286.178.973.973,0,0,0-.217.257.67.67,0,0,0-.086.34.563.563,0,0,0,.074.3.48.48,0,0,0,.193.178.882.882,0,0,0,.266.084,1.953,1.953,0,0,0,.31.024H130.1a2.193,2.193,0,0,1,1.382.4A1.493,1.493,0,0,1,132,94.728a1.956,1.956,0,0,1-.235.955,2.506,2.506,0,0,1-.626.747,2.917,2.917,0,0,1-.9.489,3.225,3.225,0,0,1-1.041.173,3.442,3.442,0,0,1-.886-.107,2.572,2.572,0,0,1-.7-.293,1.445,1.445,0,0,1-.465-.447,1.073,1.073,0,0,1-.167-.585,1.238,1.238,0,0,1,.13-.567,1.7,1.7,0,0,1,.335-.454,2.2,2.2,0,0,1,.464-.34,3.709,3.709,0,0,1,.52-.239v-.024a2.241,2.241,0,0,1-1.208-.256A.969.969,0,0,1,126.83,92.9Zm1.858,1.134-.328.2a1.206,1.206,0,0,0-.3.256,1.282,1.282,0,0,0-.21.364,1.707,1.707,0,0,0,.074,1.229,1.359,1.359,0,0,0,.4.454,1.538,1.538,0,0,0,.539.245,2.524,2.524,0,0,0,.582.071,2.4,2.4,0,0,0,.812-.131,2.091,2.091,0,0,0,.632-.352,1.563,1.563,0,0,0,.409-.507,1.325,1.325,0,0,0,.143-.6,1.106,1.106,0,0,0-.379-.949,1.7,1.7,0,0,0-1.034-.281Zm2.007-3.879a4.28,4.28,0,0,0-.037-.555,1.622,1.622,0,0,0-.155-.514.909.909,0,0,0-.36-.376,1.265,1.265,0,0,0-.65-.144,1.2,1.2,0,0,0-.954.37,1.844,1.844,0,0,0-.322,1.218,3.439,3.439,0,0,0,.055.644,1.269,1.269,0,0,0,.2.495.924.924,0,0,0,.4.317,1.6,1.6,0,0,0,.632.108,1.04,1.04,0,0,0,.917-.389A2.048,2.048,0,0,0,130.695,90.156Z" transform="translate(-109.968 -84.963)"/><path class="a" d="M134.94,90.717c0,.08,0,.162-.006.244s-.007.19-.007.317a7.23,7.23,0,0,0,.05.824,2.411,2.411,0,0,0,.216.776,1.464,1.464,0,0,0,.5.574,1.51,1.51,0,0,0,.874.226,2.243,2.243,0,0,0,.9-.155,1.647,1.647,0,0,0,.558-.377,1.6,1.6,0,0,0,.3-.447c.067-.151.116-.275.148-.37l.187.036a3.6,3.6,0,0,1-.143.376,1.729,1.729,0,0,1-.334.489,2.023,2.023,0,0,1-.62.43,2.374,2.374,0,0,1-1.01.185,3.349,3.349,0,0,1-1.146-.191,2.648,2.648,0,0,1-.911-.549,2.488,2.488,0,0,1-.595-.854,2.8,2.8,0,0,1-.21-1.1,2.517,2.517,0,0,1,.217-1.02,2.875,2.875,0,0,1,.595-.877,2.953,2.953,0,0,1,.886-.615,2.542,2.542,0,0,1,1.833-.114,2.228,2.228,0,0,1,.737.388,2.149,2.149,0,0,1,.57.711,2.361,2.361,0,0,1,.229,1.1Zm2.553-.167a2.208,2.208,0,0,0,.024-.31v-.3a2.33,2.33,0,0,0-.081-.669,1.076,1.076,0,0,0-.223-.418.8.8,0,0,0-.348-.221,1.418,1.418,0,0,0-.44-.066,1.344,1.344,0,0,0-.694.162,1.2,1.2,0,0,0-.433.436,2.17,2.17,0,0,0-.241.632,4.746,4.746,0,0,0-.106.752Z" transform="translate(-110.384 -84.963)"/><path class="a" d="M140.02,93.512h.954V88.725h-.954v-.167h1.995v1.277h.025q.073-.155.216-.394a2.08,2.08,0,0,1,.391-.466,2.225,2.225,0,0,1,.62-.388,2.27,2.27,0,0,1,.9-.161,2.176,2.176,0,0,1,1.332.381,1.419,1.419,0,0,1,.515,1.218v3.486h.954v.167H144v-.167h.953V89.656a1.218,1.218,0,0,0-.229-.765.842.842,0,0,0-.712-.3,1.783,1.783,0,0,0-.756.167,1.99,1.99,0,0,0-.632.466,2.2,2.2,0,0,0-.427.7,2.458,2.458,0,0,0-.154.884v2.7h.953v.167H140.02Z" transform="translate(-110.769 -84.965)"/><path class="a" d="M151.818,84.855h2.019V93.3h.954v.167H152.8V92.423h-.024a3.4,3.4,0,0,1-.148.347,1.468,1.468,0,0,1-.292.394,1.705,1.705,0,0,1-.483.329,1.671,1.671,0,0,1-.712.137A2.432,2.432,0,0,1,150.1,93.4a2.857,2.857,0,0,1-.861-.609,2.942,2.942,0,0,1-.588-.877,2.616,2.616,0,0,1-.007-2.071,2.759,2.759,0,0,1,.57-.854,2.882,2.882,0,0,1,.83-.585,2.342,2.342,0,0,1,1-.221,1.7,1.7,0,0,1,1.7,1.11h.025V85.022h-.954Zm-2.143,5.873q0,.621.038,1.128a2.8,2.8,0,0,0,.185.866,1.167,1.167,0,0,0,.446.549,1.483,1.483,0,0,0,.806.191,1.364,1.364,0,0,0,1.325-.77,2.443,2.443,0,0,0,.236-.758,5.526,5.526,0,0,0,.062-.812q0-.466-.019-.806a4.644,4.644,0,0,0-.069-.6,1.979,1.979,0,0,0-.136-.454,1.923,1.923,0,0,0-.21-.358,1.458,1.458,0,0,0-.483-.394,1.631,1.631,0,0,0-.756-.155,1.361,1.361,0,0,0-.712.167,1.133,1.133,0,0,0-.434.477,2.447,2.447,0,0,0-.217.747A7.04,7.04,0,0,0,149.675,90.728Z" transform="translate(-111.28 -84.748)"/><path class="a" d="M165.835,93.288h1.09l3.345-8.547h.3l3.37,8.547h1.1v.167h-3.815v-.167H172.6l-1.3-3.318h-2.874l-1.3,3.318H168.5v.167h-2.664Zm4.027-6.96L168.5,89.8h2.726Z" transform="translate(-112.337 -84.741)"/><path class="a" d="M179.69,84.855h2.019V93.3h.954v.167h-1.995V92.423h-.024a3.4,3.4,0,0,1-.148.347,1.484,1.484,0,0,1-.291.394,1.724,1.724,0,0,1-.484.329,1.671,1.671,0,0,1-.712.137,2.433,2.433,0,0,1-1.035-.227,2.857,2.857,0,0,1-.861-.609,2.942,2.942,0,0,1-.588-.877,2.616,2.616,0,0,1-.007-2.071,2.759,2.759,0,0,1,.57-.854,2.882,2.882,0,0,1,.83-.585,2.342,2.342,0,0,1,1-.221,1.7,1.7,0,0,1,1.7,1.11h.025V85.022h-.954Zm-2.143,5.873q0,.621.038,1.128a2.77,2.77,0,0,0,.186.866,1.16,1.16,0,0,0,.445.549,1.483,1.483,0,0,0,.806.191,1.364,1.364,0,0,0,1.325-.77,2.443,2.443,0,0,0,.236-.758,5.528,5.528,0,0,0,.062-.812q0-.466-.019-.806a4.642,4.642,0,0,0-.069-.6,1.979,1.979,0,0,0-.136-.454,1.922,1.922,0,0,0-.21-.358,1.457,1.457,0,0,0-.483-.394,1.631,1.631,0,0,0-.756-.155,1.361,1.361,0,0,0-.712.167,1.132,1.132,0,0,0-.434.477,2.447,2.447,0,0,0-.217.747A7.042,7.042,0,0,0,177.547,90.728Z" transform="translate(-112.974 -84.748)"/><path class="a" d="M187.512,84.855h2.019V93.3h.954v.167h-1.995V92.423h-.024a3.4,3.4,0,0,1-.148.347,1.468,1.468,0,0,1-.292.394,1.706,1.706,0,0,1-.483.329,1.671,1.671,0,0,1-.712.137A2.429,2.429,0,0,1,185.8,93.4a2.857,2.857,0,0,1-.861-.609,2.908,2.908,0,0,1-.588-.877,2.616,2.616,0,0,1-.007-2.071,2.759,2.759,0,0,1,.57-.854,2.869,2.869,0,0,1,.83-.585,2.342,2.342,0,0,1,1-.221,1.7,1.7,0,0,1,1.7,1.11h.025V85.022h-.954Zm-2.143,5.873q0,.621.038,1.128a2.8,2.8,0,0,0,.185.866,1.167,1.167,0,0,0,.446.549,1.483,1.483,0,0,0,.806.191,1.364,1.364,0,0,0,1.325-.77,2.444,2.444,0,0,0,.236-.758,5.528,5.528,0,0,0,.062-.812q0-.466-.019-.806a4.642,4.642,0,0,0-.069-.6,1.979,1.979,0,0,0-.136-.454,1.922,1.922,0,0,0-.21-.358,1.458,1.458,0,0,0-.483-.394,1.63,1.63,0,0,0-.756-.155,1.361,1.361,0,0,0-.712.167,1.132,1.132,0,0,0-.434.477,2.447,2.447,0,0,0-.217.747A7.042,7.042,0,0,0,185.369,90.728Z" transform="translate(-113.449 -84.748)"/><path class="a" d="M193.111,90.717c0,.08,0,.162-.007.244s-.006.19-.006.317a7.226,7.226,0,0,0,.049.824,2.411,2.411,0,0,0,.217.776,1.464,1.464,0,0,0,.5.574,1.51,1.51,0,0,0,.874.226,2.246,2.246,0,0,0,.9-.155,1.647,1.647,0,0,0,.558-.377,1.6,1.6,0,0,0,.3-.447c.066-.151.116-.275.148-.37l.186.036a3.215,3.215,0,0,1-.143.376,1.691,1.691,0,0,1-.334.489,2.018,2.018,0,0,1-.619.43,2.374,2.374,0,0,1-1.01.185,3.354,3.354,0,0,1-1.147-.191,2.653,2.653,0,0,1-.91-.549,2.463,2.463,0,0,1-.595-.854,2.784,2.784,0,0,1-.21-1.1,2.516,2.516,0,0,1,.216-1.02,2.862,2.862,0,0,1,.6-.877,2.953,2.953,0,0,1,.886-.615,2.542,2.542,0,0,1,1.833-.114,2.237,2.237,0,0,1,.737.388,2.135,2.135,0,0,1,.569.711,2.361,2.361,0,0,1,.23,1.1Zm2.552-.167a2.081,2.081,0,0,0,.025-.31v-.3a2.33,2.33,0,0,0-.081-.669,1.076,1.076,0,0,0-.224-.418.794.794,0,0,0-.347-.221,1.417,1.417,0,0,0-.44-.066,1.341,1.341,0,0,0-.694.162,1.214,1.214,0,0,0-.434.436,2.2,2.2,0,0,0-.241.632,4.741,4.741,0,0,0-.105.752Z" transform="translate(-113.919 -84.963)"/><path class="a" d="M198.191,93.512h.954V88.725h-.954v-.167h1.995v1.277h.024q.075-.155.217-.394a2.075,2.075,0,0,1,.39-.466,2.225,2.225,0,0,1,.62-.388,2.278,2.278,0,0,1,.9-.161,2.178,2.178,0,0,1,1.332.381,1.419,1.419,0,0,1,.514,1.218v3.486h.954v.167h-2.974v-.167h.954V89.656a1.218,1.218,0,0,0-.229-.765.843.843,0,0,0-.712-.3,1.779,1.779,0,0,0-.756.167,1.99,1.99,0,0,0-.632.466,2.2,2.2,0,0,0-.427.7,2.458,2.458,0,0,0-.155.884v2.7h.954v.167h-2.974Z" transform="translate(-114.303 -84.965)"/><path class="a" d="M209.989,84.855h2.019V93.3h.954v.167h-1.995V92.423h-.025a3.025,3.025,0,0,1-.148.347,1.444,1.444,0,0,1-.291.394,1.719,1.719,0,0,1-.483.329,1.672,1.672,0,0,1-.713.137,2.429,2.429,0,0,1-1.034-.227,2.845,2.845,0,0,1-.861-.609,2.907,2.907,0,0,1-.588-.877,2.616,2.616,0,0,1-.007-2.071,2.743,2.743,0,0,1,.57-.854,2.877,2.877,0,0,1,.829-.585,2.35,2.35,0,0,1,1-.221,1.7,1.7,0,0,1,1.7,1.11h.024V85.022h-.953Zm-2.143,5.873q0,.621.037,1.128a2.824,2.824,0,0,0,.186.866,1.167,1.167,0,0,0,.446.549,1.481,1.481,0,0,0,.8.191,1.365,1.365,0,0,0,1.326-.77,2.442,2.442,0,0,0,.235-.758,5.524,5.524,0,0,0,.062-.812q0-.466-.018-.806a4.816,4.816,0,0,0-.069-.6,2.026,2.026,0,0,0-.136-.454,1.975,1.975,0,0,0-.21-.358,1.461,1.461,0,0,0-.484-.394,1.626,1.626,0,0,0-.755-.155,1.367,1.367,0,0,0-.713.167,1.13,1.13,0,0,0-.433.477,2.447,2.447,0,0,0-.217.747A7.04,7.04,0,0,0,207.846,90.728Z" transform="translate(-114.814 -84.748)"/></g></g></svg>